<svg xmlns="http://www.w3.org/2000/svg" viewBox="0 0 49 29" width="294" height="174" shape-rendering="crispEdges" role="img"><title>Capu: Lata</title><rect x="22" y="2" width="5" height="1" fill="#CFC8BF"/><rect x="27" y="2" width="6" height="1" fill="#1F1918"/><rect x="33" y="2" width="2" height="1" fill="#CFC8BF"/><rect x="21" y="3" width="1" height="1" fill="#857D75"/><rect x="22" y="3" width="1" height="1" fill="#CFC8BF"/><rect x="23" y="3" width="4" height="1" fill="#F4ECE1"/><rect x="27" y="3" width="1" height="1" fill="#1F1918"/><rect x="28" y="3" width="1" height="1" fill="#E7B447"/><rect x="29" y="3" width="1" height="1" fill="#1F1918"/><rect x="30" y="3" width="2" height="1" fill="#E7B447"/><rect x="32" y="3" width="1" height="1" fill="#1F1918"/><rect x="33" y="3" width="1" height="1" fill="#CFC8BF"/><rect x="34" y="3" width="1" height="1" fill="#F4ECE1"/><rect x="35" y="3" width="1" height="1" fill="#A8A097"/><rect x="20" y="4" width="7" height="1" fill="#CFC8BF"/><rect x="27" y="4" width="2" height="1" fill="#1F1918"/><rect x="29" y="4" width="2" height="1" fill="#E7B447"/><rect x="31" y="4" width="2" height="1" fill="#1F1918"/><rect x="33" y="4" width="2" height="1" fill="#CFC8BF"/><rect x="35" y="4" width="1" height="1" fill="#A8A097"/><rect x="22" y="5" width="5" height="1" fill="#A8A097"/><rect x="27" y="5" width="6" height="1" fill="#39322F"/><rect x="33" y="5" width="2" height="1" fill="#A8A097"/><rect x="15" y="8" width="4" height="1" fill="#C04A56"/><rect x="21" y="8" width="2" height="1" fill="#E7B447"/><rect x="15" y="9" width="4" height="1" fill="#C04A56"/><rect x="15" y="10" width="6" height="1" fill="#C04A56"/><rect x="21" y="10" width="1" height="1" fill="#C28B2C"/><rect x="23" y="10" width="4" height="1" fill="#C04A56"/><rect x="15" y="11" width="6" height="1" fill="#C04A56"/><rect x="23" y="11" width="4" height="1" fill="#C04A56"/><rect x="15" y="12" width="16" height="1" fill="#C04A56"/><rect x="15" y="13" width="15" height="1" fill="#C04A56"/><rect x="30" y="13" width="1" height="1" fill="#9A3743"/><rect x="15" y="14" width="15" height="1" fill="#C04A56"/><rect x="30" y="14" width="1" height="1" fill="#9A3743"/><rect x="15" y="15" width="15" height="1" fill="#C04A56"/><rect x="30" y="15" width="1" height="1" fill="#9A3743"/><rect x="15" y="16" width="15" height="1" fill="#C04A56"/><rect x="30" y="16" width="1" height="1" fill="#9A3743"/><rect x="15" y="17" width="15" height="1" fill="#C04A56"/><rect x="30" y="17" width="1" height="1" fill="#9A3743"/><rect x="34" y="17" width="1" height="1" fill="#94B07C"/><rect x="15" y="18" width="15" height="1" fill="#C04A56"/><rect x="30" y="18" width="1" height="1" fill="#9A3743"/><rect x="33" y="18" width="2" height="1" fill="#94B07C"/><rect x="15" y="19" width="4" height="1" fill="#C04A56"/><rect x="21" y="19" width="4" height="1" fill="#C04A56"/><rect x="27" y="19" width="3" height="1" fill="#C04A56"/><rect x="30" y="19" width="1" height="1" fill="#9A3743"/><rect x="32" y="19" width="2" height="1" fill="#94B07C"/><rect x="15" y="20" width="15" height="1" fill="#C04A56"/><rect x="30" y="20" width="1" height="1" fill="#9A3743"/><rect x="31" y="20" width="1" height="1" fill="#6F8E5D"/><rect x="15" y="21" width="15" height="1" fill="#C04A56"/><rect x="30" y="21" width="1" height="1" fill="#9A3743"/><rect x="15" y="22" width="15" height="1" fill="#C04A56"/><rect x="30" y="22" width="1" height="1" fill="#9A3743"/><rect x="15" y="23" width="15" height="1" fill="#C04A56"/><rect x="30" y="23" width="1" height="1" fill="#9A3743"/><rect x="15" y="24" width="15" height="1" fill="#C04A56"/><rect x="30" y="24" width="1" height="1" fill="#9A3743"/><rect x="15" y="25" width="16" height="1" fill="#C04A56"/><rect x="17" y="26" width="2" height="1" fill="#C04A56"/><rect x="27" y="26" width="2" height="1" fill="#C04A56"/><rect x="17" y="27" width="2" height="1" fill="#C04A56"/><rect x="27" y="27" width="2" height="1" fill="#C04A56"/></svg>