<svg xmlns="http://www.w3.org/2000/svg" viewBox="0 0 49 30" width="294" height="180" shape-rendering="crispEdges" role="img"><title>Capu: npm install</title><rect x="16" y="2" width="18" height="1" fill="#9C7046"/><rect x="16" y="3" width="1" height="1" fill="#9C7046"/><rect x="17" y="3" width="7" height="1" fill="#C99A66"/><rect x="24" y="3" width="2" height="1" fill="#C28B2C"/><rect x="26" y="3" width="7" height="1" fill="#C99A66"/><rect x="33" y="3" width="1" height="1" fill="#9C7046"/><rect x="16" y="4" width="1" height="1" fill="#9C7046"/><rect x="17" y="4" width="7" height="1" fill="#C99A66"/><rect x="24" y="4" width="2" height="1" fill="#C28B2C"/><rect x="26" y="4" width="7" height="1" fill="#C99A66"/><rect x="33" y="4" width="1" height="1" fill="#9C7046"/><rect x="16" y="5" width="1" height="1" fill="#9C7046"/><rect x="17" y="5" width="1" height="1" fill="#C99A66"/><rect x="18" y="5" width="11" height="1" fill="#F4ECE1"/><rect x="29" y="5" width="4" height="1" fill="#C99A66"/><rect x="33" y="5" width="1" height="1" fill="#9C7046"/><rect x="16" y="6" width="1" height="1" fill="#9C7046"/><rect x="17" y="6" width="1" height="1" fill="#C99A66"/><rect x="18" y="6" width="1" height="1" fill="#F4ECE1"/><rect x="19" y="6" width="9" height="1" fill="#B9AEA1"/><rect x="28" y="6" width="1" height="1" fill="#F4ECE1"/><rect x="29" y="6" width="4" height="1" fill="#C99A66"/><rect x="33" y="6" width="1" height="1" fill="#9C7046"/><rect x="16" y="7" width="1" height="1" fill="#9C7046"/><rect x="17" y="7" width="1" height="1" fill="#C99A66"/><rect x="18" y="7" width="11" height="1" fill="#F4ECE1"/><rect x="29" y="7" width="4" height="1" fill="#C99A66"/><rect x="33" y="7" width="1" height="1" fill="#9C7046"/><rect x="16" y="8" width="1" height="1" fill="#9C7046"/><rect x="17" y="8" width="7" height="1" fill="#C99A66"/><rect x="24" y="8" width="2" height="1" fill="#C28B2C"/><rect x="26" y="8" width="7" height="1" fill="#C99A66"/><rect x="33" y="8" width="1" height="1" fill="#9C7046"/><rect x="16" y="9" width="18" height="1" fill="#9C7046"/><rect x="16" y="10" width="4" height="1" fill="#C04A56"/><rect x="16" y="11" width="4" height="1" fill="#C04A56"/><rect x="16" y="12" width="6" height="1" fill="#C04A56"/><rect x="24" y="12" width="4" height="1" fill="#C04A56"/><rect x="16" y="13" width="6" height="1" fill="#C04A56"/><rect x="24" y="13" width="4" height="1" fill="#C04A56"/><rect x="16" y="14" width="16" height="1" fill="#C04A56"/><rect x="16" y="15" width="15" height="1" fill="#C04A56"/><rect x="31" y="15" width="1" height="1" fill="#9A3743"/><rect x="16" y="16" width="15" height="1" fill="#C04A56"/><rect x="31" y="16" width="1" height="1" fill="#9A3743"/><rect x="16" y="17" width="15" height="1" fill="#C04A56"/><rect x="31" y="17" width="1" height="1" fill="#9A3743"/><rect x="16" y="18" width="15" height="1" fill="#C04A56"/><rect x="31" y="18" width="1" height="1" fill="#9A3743"/><rect x="12" y="19" width="1" height="1" fill="#94B07C"/><rect x="16" y="19" width="15" height="1" fill="#C04A56"/><rect x="31" y="19" width="1" height="1" fill="#9A3743"/><rect x="35" y="19" width="1" height="1" fill="#94B07C"/><rect x="12" y="20" width="2" height="1" fill="#94B07C"/><rect x="16" y="20" width="3" height="1" fill="#C04A56"/><rect x="22" y="20" width="4" height="1" fill="#C04A56"/><rect x="29" y="20" width="2" height="1" fill="#C04A56"/><rect x="31" y="20" width="1" height="1" fill="#9A3743"/><rect x="34" y="20" width="2" height="1" fill="#94B07C"/><rect x="13" y="21" width="2" height="1" fill="#94B07C"/><rect x="16" y="21" width="15" height="1" fill="#C04A56"/><rect x="31" y="21" width="1" height="1" fill="#9A3743"/><rect x="33" y="21" width="2" height="1" fill="#94B07C"/><rect x="15" y="22" width="1" height="1" fill="#6F8E5D"/><rect x="16" y="22" width="15" height="1" fill="#C04A56"/><rect x="31" y="22" width="1" height="1" fill="#9A3743"/><rect x="32" y="22" width="1" height="1" fill="#6F8E5D"/><rect x="16" y="23" width="15" height="1" fill="#C04A56"/><rect x="31" y="23" width="1" height="1" fill="#9A3743"/><rect x="16" y="24" width="15" height="1" fill="#C04A56"/><rect x="31" y="24" width="1" height="1" fill="#9A3743"/><rect x="16" y="25" width="16" height="1" fill="#C04A56"/><rect x="18" y="26" width="2" height="1" fill="#C04A56"/><rect x="28" y="26" width="2" height="1" fill="#C04A56"/><rect x="18" y="27" width="2" height="1" fill="#C04A56"/><rect x="28" y="27" width="2" height="1" fill="#C04A56"/></svg>