<svg xmlns="http://www.w3.org/2000/svg" viewBox="0 0 36 22" width="180" height="110" shape-rendering="crispEdges" role="img"><title>Capu: ask</title><style>g[class]{visibility:hidden}.f0{animation:k0 1640ms step-end infinite}@keyframes k0{0%,0.000%{visibility:hidden}0.000%,23.171%{visibility:visible}23.171%,100%{visibility:hidden}}.f1{animation:k1 1640ms step-end infinite}@keyframes k1{0%,23.171%{visibility:hidden}23.171%,46.341%{visibility:visible}46.341%,100%{visibility:hidden}}.f2{animation:k2 1640ms step-end infinite}@keyframes k2{0%,46.341%{visibility:hidden}46.341%,69.512%{visibility:visible}69.512%,100%{visibility:hidden}}.f3{animation:k3 1640ms step-end infinite}@keyframes k3{0%,69.512%{visibility:hidden}69.512%,76.829%{visibility:visible}76.829%,100%{visibility:hidden}}.f4{animation:k4 1640ms step-end infinite}@keyframes k4{0%,76.829%{visibility:hidden}76.829%,100.000%{visibility:visible}100.000%,100%{visibility:hidden}}@media (prefers-reduced-motion:reduce){g[class]{animation:none!important}.f0{visibility:visible}}</style><g class="f0"><rect x="10" y="1" width="4" height="1" fill="#C04A56"/><rect x="10" y="2" width="4" height="1" fill="#C04A56"/><rect x="10" y="3" width="6" height="1" fill="#C04A56"/><rect x="18" y="3" width="4" height="1" fill="#C04A56"/><rect x="10" y="4" width="6" height="1" fill="#C04A56"/><rect x="18" y="4" width="4" height="1" fill="#C04A56"/><rect x="10" y="5" width="16" height="1" fill="#C04A56"/><rect x="28" y="5" width="7" height="1" fill="#F4ECE1"/><rect x="10" y="6" width="15" height="1" fill="#C04A56"/><rect x="25" y="6" width="1" height="1" fill="#9A3743"/><rect x="28" y="6" width="2" height="1" fill="#F4ECE1"/><rect x="30" y="6" width="3" height="1" fill="#E7B447"/><rect x="33" y="6" width="2" height="1" fill="#F4ECE1"/><rect x="10" y="7" width="15" height="1" fill="#C04A56"/><rect x="25" y="7" width="1" height="1" fill="#9A3743"/><rect x="28" y="7" width="4" height="1" fill="#F4ECE1"/><rect x="32" y="7" width="1" height="1" fill="#E7B447"/><rect x="33" y="7" width="2" height="1" fill="#F4ECE1"/><rect x="10" y="8" width="15" height="1" fill="#C04A56"/><rect x="25" y="8" width="1" height="1" fill="#9A3743"/><rect x="28" y="8" width="3" height="1" fill="#F4ECE1"/><rect x="31" y="8" width="2" height="1" fill="#E7B447"/><rect x="33" y="8" width="2" height="1" fill="#F4ECE1"/><rect x="10" y="9" width="15" height="1" fill="#C04A56"/><rect x="25" y="9" width="1" height="1" fill="#9A3743"/><rect x="28" y="9" width="7" height="1" fill="#F4ECE1"/><rect x="10" y="10" width="5" height="1" fill="#C04A56"/><rect x="17" y="10" width="4" height="1" fill="#C04A56"/><rect x="23" y="10" width="2" height="1" fill="#C04A56"/><rect x="25" y="10" width="1" height="1" fill="#9A3743"/><rect x="28" y="10" width="3" height="1" fill="#F4ECE1"/><rect x="31" y="10" width="1" height="1" fill="#E7B447"/><rect x="32" y="10" width="3" height="1" fill="#F4ECE1"/><rect x="10" y="11" width="5" height="1" fill="#C04A56"/><rect x="17" y="11" width="4" height="1" fill="#C04A56"/><rect x="23" y="11" width="2" height="1" fill="#C04A56"/><rect x="25" y="11" width="1" height="1" fill="#9A3743"/><rect x="28" y="11" width="7" height="1" fill="#F4ECE1"/><rect x="10" y="12" width="5" height="1" fill="#C04A56"/><rect x="17" y="12" width="4" height="1" fill="#C04A56"/><rect x="23" y="12" width="2" height="1" fill="#C04A56"/><rect x="25" y="12" width="1" height="1" fill="#9A3743"/><rect x="31" y="12" width="1" height="1" fill="#8E5B40"/><rect x="10" y="13" width="5" height="1" fill="#C04A56"/><rect x="17" y="13" width="4" height="1" fill="#C04A56"/><rect x="23" y="13" width="2" height="1" fill="#C04A56"/><rect x="25" y="13" width="1" height="1" fill="#9A3743"/><rect x="31" y="13" width="1" height="1" fill="#8E5B40"/><rect x="10" y="14" width="15" height="1" fill="#C04A56"/><rect x="25" y="14" width="1" height="1" fill="#9A3743"/><rect x="10" y="15" width="15" height="1" fill="#C04A56"/><rect x="25" y="15" width="1" height="1" fill="#9A3743"/><rect x="10" y="16" width="15" height="1" fill="#C04A56"/><rect x="25" y="16" width="1" height="1" fill="#9A3743"/><rect x="26" y="16" width="1" height="1" fill="#6F8E5D"/><rect x="27" y="16" width="3" height="1" fill="#94B07C"/><rect x="10" y="17" width="15" height="1" fill="#C04A56"/><rect x="25" y="17" width="1" height="1" fill="#9A3743"/><rect x="28" y="17" width="2" height="1" fill="#94B07C"/><rect x="10" y="18" width="16" height="1" fill="#C04A56"/><rect x="12" y="19" width="2" height="1" fill="#C04A56"/><rect x="22" y="19" width="2" height="1" fill="#C04A56"/><rect x="12" y="20" width="2" height="1" fill="#C04A56"/><rect x="22" y="20" width="2" height="1" fill="#C04A56"/></g><g class="f1"><rect x="10" y="1" width="4" height="1" fill="#C04A56"/><rect x="10" y="2" width="4" height="1" fill="#C04A56"/><rect x="10" y="3" width="6" height="1" fill="#C04A56"/><rect x="18" y="3" width="4" height="1" fill="#C04A56"/><rect x="10" y="4" width="6" height="1" fill="#C04A56"/><rect x="18" y="4" width="4" height="1" fill="#C04A56"/><rect x="28" y="4" width="7" height="1" fill="#F4ECE1"/><rect x="10" y="5" width="16" height="1" fill="#C04A56"/><rect x="28" y="5" width="2" height="1" fill="#F4ECE1"/><rect x="30" y="5" width="3" height="1" fill="#E7B447"/><rect x="33" y="5" width="2" height="1" fill="#F4ECE1"/><rect x="10" y="6" width="15" height="1" fill="#C04A56"/><rect x="25" y="6" width="1" height="1" fill="#9A3743"/><rect x="28" y="6" width="4" height="1" fill="#F4ECE1"/><rect x="32" y="6" width="1" height="1" fill="#E7B447"/><rect x="33" y="6" width="2" height="1" fill="#F4ECE1"/><rect x="10" y="7" width="15" height="1" fill="#C04A56"/><rect x="25" y="7" width="1" height="1" fill="#9A3743"/><rect x="28" y="7" width="3" height="1" fill="#F4ECE1"/><rect x="31" y="7" width="2" height="1" fill="#E7B447"/><rect x="33" y="7" width="2" height="1" fill="#F4ECE1"/><rect x="10" y="8" width="15" height="1" fill="#C04A56"/><rect x="25" y="8" width="1" height="1" fill="#9A3743"/><rect x="28" y="8" width="7" height="1" fill="#F4ECE1"/><rect x="10" y="9" width="15" height="1" fill="#C04A56"/><rect x="25" y="9" width="1" height="1" fill="#9A3743"/><rect x="28" y="9" width="3" height="1" fill="#F4ECE1"/><rect x="31" y="9" width="1" height="1" fill="#E7B447"/><rect x="32" y="9" width="3" height="1" fill="#F4ECE1"/><rect x="10" y="10" width="5" height="1" fill="#C04A56"/><rect x="17" y="10" width="4" height="1" fill="#C04A56"/><rect x="23" y="10" width="2" height="1" fill="#C04A56"/><rect x="25" y="10" width="1" height="1" fill="#9A3743"/><rect x="28" y="10" width="7" height="1" fill="#F4ECE1"/><rect x="10" y="11" width="5" height="1" fill="#C04A56"/><rect x="17" y="11" width="4" height="1" fill="#C04A56"/><rect x="23" y="11" width="2" height="1" fill="#C04A56"/><rect x="25" y="11" width="1" height="1" fill="#9A3743"/><rect x="31" y="11" width="1" height="1" fill="#8E5B40"/><rect x="10" y="12" width="5" height="1" fill="#C04A56"/><rect x="17" y="12" width="4" height="1" fill="#C04A56"/><rect x="23" y="12" width="2" height="1" fill="#C04A56"/><rect x="25" y="12" width="1" height="1" fill="#9A3743"/><rect x="31" y="12" width="1" height="1" fill="#8E5B40"/><rect x="10" y="13" width="5" height="1" fill="#C04A56"/><rect x="17" y="13" width="4" height="1" fill="#C04A56"/><rect x="23" y="13" width="2" height="1" fill="#C04A56"/><rect x="25" y="13" width="1" height="1" fill="#9A3743"/><rect x="10" y="14" width="15" height="1" fill="#C04A56"/><rect x="25" y="14" width="1" height="1" fill="#9A3743"/><rect x="10" y="15" width="15" height="1" fill="#C04A56"/><rect x="25" y="15" width="1" height="1" fill="#9A3743"/><rect x="10" y="16" width="15" height="1" fill="#C04A56"/><rect x="25" y="16" width="1" height="1" fill="#9A3743"/><rect x="26" y="16" width="1" height="1" fill="#6F8E5D"/><rect x="27" y="16" width="3" height="1" fill="#94B07C"/><rect x="10" y="17" width="15" height="1" fill="#C04A56"/><rect x="25" y="17" width="1" height="1" fill="#9A3743"/><rect x="28" y="17" width="2" height="1" fill="#94B07C"/><rect x="10" y="18" width="16" height="1" fill="#C04A56"/><rect x="12" y="19" width="2" height="1" fill="#C04A56"/><rect x="22" y="19" width="2" height="1" fill="#C04A56"/><rect x="12" y="20" width="2" height="1" fill="#C04A56"/></g><g class="f2"><rect x="10" y="1" width="4" height="1" fill="#C04A56"/><rect x="10" y="2" width="4" height="1" fill="#C04A56"/><rect x="10" y="3" width="6" height="1" fill="#C04A56"/><rect x="18" y="3" width="4" height="1" fill="#C04A56"/><rect x="10" y="4" width="6" height="1" fill="#C04A56"/><rect x="18" y="4" width="4" height="1" fill="#C04A56"/><rect x="10" y="5" width="16" height="1" fill="#C04A56"/><rect x="28" y="5" width="7" height="1" fill="#F4ECE1"/><rect x="10" y="6" width="15" height="1" fill="#C04A56"/><rect x="25" y="6" width="1" height="1" fill="#9A3743"/><rect x="28" y="6" width="2" height="1" fill="#F4ECE1"/><rect x="30" y="6" width="3" height="1" fill="#E7B447"/><rect x="33" y="6" width="2" height="1" fill="#F4ECE1"/><rect x="10" y="7" width="15" height="1" fill="#C04A56"/><rect x="25" y="7" width="1" height="1" fill="#9A3743"/><rect x="28" y="7" width="4" height="1" fill="#F4ECE1"/><rect x="32" y="7" width="1" height="1" fill="#E7B447"/><rect x="33" y="7" width="2" height="1" fill="#F4ECE1"/><rect x="10" y="8" width="15" height="1" fill="#C04A56"/><rect x="25" y="8" width="1" height="1" fill="#9A3743"/><rect x="28" y="8" width="3" height="1" fill="#F4ECE1"/><rect x="31" y="8" width="2" height="1" fill="#E7B447"/><rect x="33" y="8" width="2" height="1" fill="#F4ECE1"/><rect x="10" y="9" width="15" height="1" fill="#C04A56"/><rect x="25" y="9" width="1" height="1" fill="#9A3743"/><rect x="28" y="9" width="7" height="1" fill="#F4ECE1"/><rect x="10" y="10" width="5" height="1" fill="#C04A56"/><rect x="17" y="10" width="4" height="1" fill="#C04A56"/><rect x="23" y="10" width="2" height="1" fill="#C04A56"/><rect x="25" y="10" width="1" height="1" fill="#9A3743"/><rect x="28" y="10" width="3" height="1" fill="#F4ECE1"/><rect x="31" y="10" width="1" height="1" fill="#E7B447"/><rect x="32" y="10" width="3" height="1" fill="#F4ECE1"/><rect x="10" y="11" width="5" height="1" fill="#C04A56"/><rect x="17" y="11" width="4" height="1" fill="#C04A56"/><rect x="23" y="11" width="2" height="1" fill="#C04A56"/><rect x="25" y="11" width="1" height="1" fill="#9A3743"/><rect x="28" y="11" width="7" height="1" fill="#F4ECE1"/><rect x="10" y="12" width="5" height="1" fill="#C04A56"/><rect x="17" y="12" width="4" height="1" fill="#C04A56"/><rect x="23" y="12" width="2" height="1" fill="#C04A56"/><rect x="25" y="12" width="1" height="1" fill="#9A3743"/><rect x="31" y="12" width="1" height="1" fill="#8E5B40"/><rect x="10" y="13" width="5" height="1" fill="#C04A56"/><rect x="17" y="13" width="4" height="1" fill="#C04A56"/><rect x="23" y="13" width="2" height="1" fill="#C04A56"/><rect x="25" y="13" width="1" height="1" fill="#9A3743"/><rect x="31" y="13" width="1" height="1" fill="#8E5B40"/><rect x="10" y="14" width="15" height="1" fill="#C04A56"/><rect x="25" y="14" width="1" height="1" fill="#9A3743"/><rect x="10" y="15" width="15" height="1" fill="#C04A56"/><rect x="25" y="15" width="1" height="1" fill="#9A3743"/><rect x="10" y="16" width="15" height="1" fill="#C04A56"/><rect x="25" y="16" width="1" height="1" fill="#9A3743"/><rect x="26" y="16" width="1" height="1" fill="#6F8E5D"/><rect x="27" y="16" width="3" height="1" fill="#94B07C"/><rect x="10" y="17" width="15" height="1" fill="#C04A56"/><rect x="25" y="17" width="1" height="1" fill="#9A3743"/><rect x="28" y="17" width="2" height="1" fill="#94B07C"/><rect x="10" y="18" width="16" height="1" fill="#C04A56"/><rect x="12" y="19" width="2" height="1" fill="#C04A56"/><rect x="22" y="19" width="2" height="1" fill="#C04A56"/><rect x="12" y="20" width="2" height="1" fill="#C04A56"/><rect x="22" y="20" width="2" height="1" fill="#C04A56"/></g><g class="f3"><rect x="10" y="1" width="4" height="1" fill="#C04A56"/><rect x="10" y="2" width="4" height="1" fill="#C04A56"/><rect x="10" y="3" width="6" height="1" fill="#C04A56"/><rect x="18" y="3" width="4" height="1" fill="#C04A56"/><rect x="10" y="4" width="6" height="1" fill="#C04A56"/><rect x="18" y="4" width="4" height="1" fill="#C04A56"/><rect x="28" y="4" width="7" height="1" fill="#F4ECE1"/><rect x="10" y="5" width="16" height="1" fill="#C04A56"/><rect x="28" y="5" width="2" height="1" fill="#F4ECE1"/><rect x="30" y="5" width="3" height="1" fill="#E7B447"/><rect x="33" y="5" width="2" height="1" fill="#F4ECE1"/><rect x="10" y="6" width="15" height="1" fill="#C04A56"/><rect x="25" y="6" width="1" height="1" fill="#9A3743"/><rect x="28" y="6" width="4" height="1" fill="#F4ECE1"/><rect x="32" y="6" width="1" height="1" fill="#E7B447"/><rect x="33" y="6" width="2" height="1" fill="#F4ECE1"/><rect x="10" y="7" width="15" height="1" fill="#C04A56"/><rect x="25" y="7" width="1" height="1" fill="#9A3743"/><rect x="28" y="7" width="3" height="1" fill="#F4ECE1"/><rect x="31" y="7" width="2" height="1" fill="#E7B447"/><rect x="33" y="7" width="2" height="1" fill="#F4ECE1"/><rect x="10" y="8" width="15" height="1" fill="#C04A56"/><rect x="25" y="8" width="1" height="1" fill="#9A3743"/><rect x="28" y="8" width="7" height="1" fill="#F4ECE1"/><rect x="10" y="9" width="15" height="1" fill="#C04A56"/><rect x="25" y="9" width="1" height="1" fill="#9A3743"/><rect x="28" y="9" width="3" height="1" fill="#F4ECE1"/><rect x="31" y="9" width="1" height="1" fill="#E7B447"/><rect x="32" y="9" width="3" height="1" fill="#F4ECE1"/><rect x="10" y="10" width="15" height="1" fill="#C04A56"/><rect x="25" y="10" width="1" height="1" fill="#9A3743"/><rect x="28" y="10" width="7" height="1" fill="#F4ECE1"/><rect x="10" y="11" width="15" height="1" fill="#C04A56"/><rect x="25" y="11" width="1" height="1" fill="#9A3743"/><rect x="31" y="11" width="1" height="1" fill="#8E5B40"/><rect x="10" y="12" width="4" height="1" fill="#C04A56"/><rect x="16" y="12" width="4" height="1" fill="#C04A56"/><rect x="22" y="12" width="3" height="1" fill="#C04A56"/><rect x="25" y="12" width="1" height="1" fill="#9A3743"/><rect x="31" y="12" width="1" height="1" fill="#8E5B40"/><rect x="10" y="13" width="15" height="1" fill="#C04A56"/><rect x="25" y="13" width="1" height="1" fill="#9A3743"/><rect x="10" y="14" width="15" height="1" fill="#C04A56"/><rect x="25" y="14" width="1" height="1" fill="#9A3743"/><rect x="10" y="15" width="15" height="1" fill="#C04A56"/><rect x="25" y="15" width="1" height="1" fill="#9A3743"/><rect x="10" y="16" width="15" height="1" fill="#C04A56"/><rect x="25" y="16" width="1" height="1" fill="#9A3743"/><rect x="26" y="16" width="1" height="1" fill="#6F8E5D"/><rect x="27" y="16" width="3" height="1" fill="#94B07C"/><rect x="10" y="17" width="15" height="1" fill="#C04A56"/><rect x="25" y="17" width="1" height="1" fill="#9A3743"/><rect x="28" y="17" width="2" height="1" fill="#94B07C"/><rect x="10" y="18" width="16" height="1" fill="#C04A56"/><rect x="12" y="19" width="2" height="1" fill="#C04A56"/><rect x="22" y="19" width="2" height="1" fill="#C04A56"/><rect x="12" y="20" width="2" height="1" fill="#C04A56"/></g><g class="f4"><rect x="10" y="1" width="4" height="1" fill="#C04A56"/><rect x="10" y="2" width="4" height="1" fill="#C04A56"/><rect x="10" y="3" width="6" height="1" fill="#C04A56"/><rect x="18" y="3" width="4" height="1" fill="#C04A56"/><rect x="10" y="4" width="6" height="1" fill="#C04A56"/><rect x="18" y="4" width="4" height="1" fill="#C04A56"/><rect x="28" y="4" width="7" height="1" fill="#F4ECE1"/><rect x="10" y="5" width="16" height="1" fill="#C04A56"/><rect x="28" y="5" width="2" height="1" fill="#F4ECE1"/><rect x="30" y="5" width="3" height="1" fill="#E7B447"/><rect x="33" y="5" width="2" height="1" fill="#F4ECE1"/><rect x="10" y="6" width="15" height="1" fill="#C04A56"/><rect x="25" y="6" width="1" height="1" fill="#9A3743"/><rect x="28" y="6" width="4" height="1" fill="#F4ECE1"/><rect x="32" y="6" width="1" height="1" fill="#E7B447"/><rect x="33" y="6" width="2" height="1" fill="#F4ECE1"/><rect x="10" y="7" width="15" height="1" fill="#C04A56"/><rect x="25" y="7" width="1" height="1" fill="#9A3743"/><rect x="28" y="7" width="3" height="1" fill="#F4ECE1"/><rect x="31" y="7" width="2" height="1" fill="#E7B447"/><rect x="33" y="7" width="2" height="1" fill="#F4ECE1"/><rect x="10" y="8" width="15" height="1" fill="#C04A56"/><rect x="25" y="8" width="1" height="1" fill="#9A3743"/><rect x="28" y="8" width="7" height="1" fill="#F4ECE1"/><rect x="10" y="9" width="15" height="1" fill="#C04A56"/><rect x="25" y="9" width="1" height="1" fill="#9A3743"/><rect x="28" y="9" width="3" height="1" fill="#F4ECE1"/><rect x="31" y="9" width="1" height="1" fill="#E7B447"/><rect x="32" y="9" width="3" height="1" fill="#F4ECE1"/><rect x="10" y="10" width="5" height="1" fill="#C04A56"/><rect x="17" y="10" width="4" height="1" fill="#C04A56"/><rect x="23" y="10" width="2" height="1" fill="#C04A56"/><rect x="25" y="10" width="1" height="1" fill="#9A3743"/><rect x="28" y="10" width="7" height="1" fill="#F4ECE1"/><rect x="10" y="11" width="5" height="1" fill="#C04A56"/><rect x="17" y="11" width="4" height="1" fill="#C04A56"/><rect x="23" y="11" width="2" height="1" fill="#C04A56"/><rect x="25" y="11" width="1" height="1" fill="#9A3743"/><rect x="31" y="11" width="1" height="1" fill="#8E5B40"/><rect x="10" y="12" width="5" height="1" fill="#C04A56"/><rect x="17" y="12" width="4" height="1" fill="#C04A56"/><rect x="23" y="12" width="2" height="1" fill="#C04A56"/><rect x="25" y="12" width="1" height="1" fill="#9A3743"/><rect x="31" y="12" width="1" height="1" fill="#8E5B40"/><rect x="10" y="13" width="5" height="1" fill="#C04A56"/><rect x="17" y="13" width="4" height="1" fill="#C04A56"/><rect x="23" y="13" width="2" height="1" fill="#C04A56"/><rect x="25" y="13" width="1" height="1" fill="#9A3743"/><rect x="10" y="14" width="15" height="1" fill="#C04A56"/><rect x="25" y="14" width="1" height="1" fill="#9A3743"/><rect x="10" y="15" width="15" height="1" fill="#C04A56"/><rect x="25" y="15" width="1" height="1" fill="#9A3743"/><rect x="10" y="16" width="15" height="1" fill="#C04A56"/><rect x="25" y="16" width="1" height="1" fill="#9A3743"/><rect x="26" y="16" width="1" height="1" fill="#6F8E5D"/><rect x="27" y="16" width="3" height="1" fill="#94B07C"/><rect x="10" y="17" width="15" height="1" fill="#C04A56"/><rect x="25" y="17" width="1" height="1" fill="#9A3743"/><rect x="28" y="17" width="2" height="1" fill="#94B07C"/><rect x="10" y="18" width="16" height="1" fill="#C04A56"/><rect x="12" y="19" width="2" height="1" fill="#C04A56"/><rect x="22" y="19" width="2" height="1" fill="#C04A56"/><rect x="12" y="20" width="2" height="1" fill="#C04A56"/></g></svg>