<svg xmlns="http://www.w3.org/2000/svg" viewBox="0 0 26 22" width="130" height="110" shape-rendering="crispEdges" role="img"><title>Capu: copilot</title><style>g[class]{visibility:hidden}.f0{animation:k0 1800ms step-end infinite}@keyframes k0{0%,0.000%{visibility:hidden}0.000%,16.667%{visibility:visible}16.667%,100%{visibility:hidden}}.f1{animation:k1 1800ms step-end infinite}@keyframes k1{0%,16.667%{visibility:hidden}16.667%,33.333%{visibility:visible}33.333%,100%{visibility:hidden}}.f2{animation:k2 1800ms step-end infinite}@keyframes k2{0%,33.333%{visibility:hidden}33.333%,72.222%{visibility:visible}72.222%,100%{visibility:hidden}}.f3{animation:k3 1800ms step-end infinite}@keyframes k3{0%,72.222%{visibility:hidden}72.222%,100.000%{visibility:visible}100.000%,100%{visibility:hidden}}@media (prefers-reduced-motion:reduce){g[class]{animation:none!important}.f0{visibility:visible}}</style><g class="f0"><rect x="9" y="1" width="8" height="1" fill="#6E4431"/><rect x="7" y="2" width="12" height="1" fill="#6E4431"/><rect x="6" y="3" width="3" height="1" fill="#6E4431"/><rect x="9" y="3" width="1" height="1" fill="#8E5B40"/><rect x="10" y="3" width="6" height="1" fill="#6E4431"/><rect x="16" y="3" width="1" height="1" fill="#8E5B40"/><rect x="17" y="3" width="3" height="1" fill="#6E4431"/><rect x="5" y="4" width="16" height="1" fill="#6E4431"/><rect x="5" y="5" width="16" height="1" fill="#39322F"/><rect x="5" y="6" width="1" height="1" fill="#C04A56"/><rect x="6" y="6" width="1" height="1" fill="#857D75"/><rect x="7" y="6" width="2" height="1" fill="#F4ECE1"/><rect x="9" y="6" width="1" height="1" fill="#857D75"/><rect x="10" y="6" width="4" height="1" fill="#C04A56"/><rect x="14" y="6" width="1" height="1" fill="#857D75"/><rect x="15" y="6" width="2" height="1" fill="#F4ECE1"/><rect x="17" y="6" width="1" height="1" fill="#857D75"/><rect x="18" y="6" width="2" height="1" fill="#C04A56"/><rect x="20" y="6" width="1" height="1" fill="#9A3743"/><rect x="5" y="7" width="1" height="1" fill="#C04A56"/><rect x="6" y="7" width="1" height="1" fill="#857D75"/><rect x="7" y="7" width="1" height="1" fill="#F4ECE1"/><rect x="8" y="7" width="1" height="1" fill="#DDD3C6"/><rect x="9" y="7" width="1" height="1" fill="#857D75"/><rect x="10" y="7" width="4" height="1" fill="#C04A56"/><rect x="14" y="7" width="1" height="1" fill="#857D75"/><rect x="15" y="7" width="1" height="1" fill="#F4ECE1"/><rect x="16" y="7" width="1" height="1" fill="#DDD3C6"/><rect x="17" y="7" width="1" height="1" fill="#857D75"/><rect x="18" y="7" width="2" height="1" fill="#C04A56"/><rect x="20" y="7" width="1" height="1" fill="#9A3743"/><rect x="5" y="8" width="2" height="1" fill="#C04A56"/><rect x="7" y="8" width="2" height="1" fill="#857D75"/><rect x="9" y="8" width="6" height="1" fill="#C04A56"/><rect x="15" y="8" width="2" height="1" fill="#857D75"/><rect x="17" y="8" width="3" height="1" fill="#C04A56"/><rect x="20" y="8" width="1" height="1" fill="#9A3743"/><rect x="5" y="9" width="4" height="1" fill="#C04A56"/><rect x="11" y="9" width="4" height="1" fill="#C04A56"/><rect x="17" y="9" width="3" height="1" fill="#C04A56"/><rect x="20" y="9" width="1" height="1" fill="#9A3743"/><rect x="5" y="10" width="4" height="1" fill="#C04A56"/><rect x="11" y="10" width="4" height="1" fill="#C04A56"/><rect x="17" y="10" width="3" height="1" fill="#C04A56"/><rect x="20" y="10" width="1" height="1" fill="#9A3743"/><rect x="5" y="11" width="4" height="1" fill="#C04A56"/><rect x="11" y="11" width="4" height="1" fill="#C04A56"/><rect x="17" y="11" width="3" height="1" fill="#C04A56"/><rect x="20" y="11" width="1" height="1" fill="#9A3743"/><rect x="5" y="12" width="4" height="1" fill="#C04A56"/><rect x="11" y="12" width="4" height="1" fill="#C04A56"/><rect x="17" y="12" width="3" height="1" fill="#C04A56"/><rect x="20" y="12" width="1" height="1" fill="#9A3743"/><rect x="5" y="13" width="15" height="1" fill="#C04A56"/><rect x="20" y="13" width="1" height="1" fill="#9A3743"/><rect x="5" y="14" width="15" height="1" fill="#C04A56"/><rect x="20" y="14" width="1" height="1" fill="#9A3743"/><rect x="5" y="15" width="15" height="1" fill="#C04A56"/><rect x="20" y="15" width="1" height="1" fill="#9A3743"/><rect x="5" y="16" width="15" height="1" fill="#C04A56"/><rect x="20" y="16" width="1" height="1" fill="#9A3743"/><rect x="21" y="16" width="1" height="1" fill="#6F8E5D"/><rect x="22" y="16" width="3" height="1" fill="#94B07C"/><rect x="5" y="17" width="15" height="1" fill="#C04A56"/><rect x="20" y="17" width="1" height="1" fill="#9A3743"/><rect x="23" y="17" width="2" height="1" fill="#94B07C"/><rect x="5" y="18" width="16" height="1" fill="#C04A56"/><rect x="7" y="19" width="2" height="1" fill="#C04A56"/><rect x="17" y="19" width="2" height="1" fill="#C04A56"/><rect x="7" y="20" width="2" height="1" fill="#C04A56"/><rect x="17" y="20" width="2" height="1" fill="#C04A56"/></g><g class="f1"><rect x="9" y="1" width="8" height="1" fill="#6E4431"/><rect x="7" y="2" width="12" height="1" fill="#6E4431"/><rect x="6" y="3" width="3" height="1" fill="#6E4431"/><rect x="9" y="3" width="1" height="1" fill="#8E5B40"/><rect x="10" y="3" width="6" height="1" fill="#6E4431"/><rect x="16" y="3" width="1" height="1" fill="#8E5B40"/><rect x="17" y="3" width="3" height="1" fill="#6E4431"/><rect x="5" y="4" width="16" height="1" fill="#6E4431"/><rect x="5" y="5" width="16" height="1" fill="#39322F"/><rect x="5" y="6" width="1" height="1" fill="#C04A56"/><rect x="6" y="6" width="1" height="1" fill="#857D75"/><rect x="7" y="6" width="2" height="1" fill="#F4ECE1"/><rect x="9" y="6" width="1" height="1" fill="#857D75"/><rect x="10" y="6" width="4" height="1" fill="#C04A56"/><rect x="14" y="6" width="1" height="1" fill="#857D75"/><rect x="15" y="6" width="2" height="1" fill="#F4ECE1"/><rect x="17" y="6" width="1" height="1" fill="#857D75"/><rect x="18" y="6" width="2" height="1" fill="#C04A56"/><rect x="20" y="6" width="1" height="1" fill="#9A3743"/><rect x="5" y="7" width="1" height="1" fill="#C04A56"/><rect x="6" y="7" width="1" height="1" fill="#857D75"/><rect x="7" y="7" width="1" height="1" fill="#F4ECE1"/><rect x="8" y="7" width="1" height="1" fill="#DDD3C6"/><rect x="9" y="7" width="1" height="1" fill="#857D75"/><rect x="10" y="7" width="4" height="1" fill="#C04A56"/><rect x="14" y="7" width="1" height="1" fill="#857D75"/><rect x="15" y="7" width="1" height="1" fill="#F4ECE1"/><rect x="16" y="7" width="1" height="1" fill="#DDD3C6"/><rect x="17" y="7" width="1" height="1" fill="#857D75"/><rect x="18" y="7" width="2" height="1" fill="#C04A56"/><rect x="20" y="7" width="1" height="1" fill="#9A3743"/><rect x="5" y="8" width="2" height="1" fill="#C04A56"/><rect x="7" y="8" width="2" height="1" fill="#857D75"/><rect x="9" y="8" width="6" height="1" fill="#C04A56"/><rect x="15" y="8" width="2" height="1" fill="#857D75"/><rect x="17" y="8" width="3" height="1" fill="#C04A56"/><rect x="20" y="8" width="1" height="1" fill="#9A3743"/><rect x="5" y="9" width="4" height="1" fill="#C04A56"/><rect x="11" y="9" width="4" height="1" fill="#C04A56"/><rect x="17" y="9" width="3" height="1" fill="#C04A56"/><rect x="20" y="9" width="1" height="1" fill="#9A3743"/><rect x="5" y="10" width="4" height="1" fill="#C04A56"/><rect x="11" y="10" width="4" height="1" fill="#C04A56"/><rect x="17" y="10" width="3" height="1" fill="#C04A56"/><rect x="20" y="10" width="1" height="1" fill="#9A3743"/><rect x="5" y="11" width="4" height="1" fill="#C04A56"/><rect x="11" y="11" width="4" height="1" fill="#C04A56"/><rect x="17" y="11" width="3" height="1" fill="#C04A56"/><rect x="20" y="11" width="1" height="1" fill="#9A3743"/><rect x="5" y="12" width="4" height="1" fill="#C04A56"/><rect x="11" y="12" width="4" height="1" fill="#C04A56"/><rect x="17" y="12" width="3" height="1" fill="#C04A56"/><rect x="20" y="12" width="1" height="1" fill="#9A3743"/><rect x="5" y="13" width="15" height="1" fill="#C04A56"/><rect x="20" y="13" width="1" height="1" fill="#9A3743"/><rect x="5" y="14" width="15" height="1" fill="#C04A56"/><rect x="20" y="14" width="1" height="1" fill="#9A3743"/><rect x="5" y="15" width="15" height="1" fill="#C04A56"/><rect x="20" y="15" width="1" height="1" fill="#9A3743"/><rect x="5" y="16" width="15" height="1" fill="#C04A56"/><rect x="20" y="16" width="1" height="1" fill="#9A3743"/><rect x="21" y="16" width="1" height="1" fill="#6F8E5D"/><rect x="22" y="16" width="3" height="1" fill="#94B07C"/><rect x="5" y="17" width="15" height="1" fill="#C04A56"/><rect x="20" y="17" width="1" height="1" fill="#9A3743"/><rect x="23" y="17" width="2" height="1" fill="#94B07C"/><rect x="5" y="18" width="16" height="1" fill="#C04A56"/><rect x="7" y="19" width="2" height="1" fill="#C04A56"/><rect x="17" y="19" width="2" height="1" fill="#C04A56"/><rect x="7" y="20" width="2" height="1" fill="#C04A56"/><rect x="17" y="20" width="2" height="1" fill="#C04A56"/></g><g class="f2"><rect x="9" y="1" width="8" height="1" fill="#6E4431"/><rect x="7" y="2" width="12" height="1" fill="#6E4431"/><rect x="6" y="3" width="3" height="1" fill="#6E4431"/><rect x="9" y="3" width="1" height="1" fill="#8E5B40"/><rect x="10" y="3" width="6" height="1" fill="#6E4431"/><rect x="16" y="3" width="1" height="1" fill="#8E5B40"/><rect x="17" y="3" width="3" height="1" fill="#6E4431"/><rect x="5" y="4" width="16" height="1" fill="#6E4431"/><rect x="5" y="5" width="16" height="1" fill="#39322F"/><rect x="5" y="6" width="1" height="1" fill="#C04A56"/><rect x="6" y="6" width="1" height="1" fill="#857D75"/><rect x="7" y="6" width="2" height="1" fill="#F4ECE1"/><rect x="9" y="6" width="1" height="1" fill="#857D75"/><rect x="10" y="6" width="4" height="1" fill="#C04A56"/><rect x="14" y="6" width="1" height="1" fill="#857D75"/><rect x="15" y="6" width="2" height="1" fill="#F4ECE1"/><rect x="17" y="6" width="1" height="1" fill="#857D75"/><rect x="18" y="6" width="2" height="1" fill="#C04A56"/><rect x="20" y="6" width="1" height="1" fill="#9A3743"/><rect x="23" y="6" width="2" height="1" fill="#94B07C"/><rect x="5" y="7" width="1" height="1" fill="#C04A56"/><rect x="6" y="7" width="1" height="1" fill="#857D75"/><rect x="7" y="7" width="1" height="1" fill="#F4ECE1"/><rect x="8" y="7" width="1" height="1" fill="#DDD3C6"/><rect x="9" y="7" width="1" height="1" fill="#857D75"/><rect x="10" y="7" width="4" height="1" fill="#C04A56"/><rect x="14" y="7" width="1" height="1" fill="#857D75"/><rect x="15" y="7" width="1" height="1" fill="#F4ECE1"/><rect x="16" y="7" width="1" height="1" fill="#DDD3C6"/><rect x="17" y="7" width="1" height="1" fill="#857D75"/><rect x="18" y="7" width="2" height="1" fill="#C04A56"/><rect x="20" y="7" width="1" height="1" fill="#9A3743"/><rect x="23" y="7" width="2" height="1" fill="#94B07C"/><rect x="5" y="8" width="2" height="1" fill="#C04A56"/><rect x="7" y="8" width="2" height="1" fill="#857D75"/><rect x="9" y="8" width="6" height="1" fill="#C04A56"/><rect x="15" y="8" width="2" height="1" fill="#857D75"/><rect x="17" y="8" width="3" height="1" fill="#C04A56"/><rect x="20" y="8" width="1" height="1" fill="#9A3743"/><rect x="23" y="8" width="1" height="1" fill="#6F8E5D"/><rect x="5" y="9" width="15" height="1" fill="#C04A56"/><rect x="20" y="9" width="1" height="1" fill="#9A3743"/><rect x="5" y="10" width="4" height="1" fill="#C04A56"/><rect x="11" y="10" width="4" height="1" fill="#C04A56"/><rect x="17" y="10" width="3" height="1" fill="#C04A56"/><rect x="20" y="10" width="1" height="1" fill="#9A3743"/><rect x="5" y="11" width="3" height="1" fill="#C04A56"/><rect x="9" y="11" width="2" height="1" fill="#C04A56"/><rect x="12" y="11" width="2" height="1" fill="#C04A56"/><rect x="15" y="11" width="2" height="1" fill="#C04A56"/><rect x="18" y="11" width="2" height="1" fill="#C04A56"/><rect x="20" y="11" width="1" height="1" fill="#9A3743"/><rect x="5" y="12" width="15" height="1" fill="#C04A56"/><rect x="20" y="12" width="1" height="1" fill="#9A3743"/><rect x="23" y="12" width="2" height="1" fill="#94B07C"/><rect x="5" y="13" width="15" height="1" fill="#C04A56"/><rect x="20" y="13" width="1" height="1" fill="#9A3743"/><rect x="22" y="13" width="2" height="1" fill="#94B07C"/><rect x="5" y="14" width="15" height="1" fill="#C04A56"/><rect x="20" y="14" width="1" height="1" fill="#9A3743"/><rect x="21" y="14" width="1" height="1" fill="#6F8E5D"/><rect x="5" y="15" width="15" height="1" fill="#C04A56"/><rect x="20" y="15" width="1" height="1" fill="#9A3743"/><rect x="5" y="16" width="15" height="1" fill="#C04A56"/><rect x="20" y="16" width="1" height="1" fill="#9A3743"/><rect x="5" y="17" width="15" height="1" fill="#C04A56"/><rect x="20" y="17" width="1" height="1" fill="#9A3743"/><rect x="5" y="18" width="16" height="1" fill="#C04A56"/><rect x="7" y="19" width="2" height="1" fill="#C04A56"/><rect x="17" y="19" width="2" height="1" fill="#C04A56"/><rect x="7" y="20" width="2" height="1" fill="#C04A56"/><rect x="17" y="20" width="2" height="1" fill="#C04A56"/></g><g class="f3"><rect x="9" y="1" width="8" height="1" fill="#6E4431"/><rect x="7" y="2" width="12" height="1" fill="#6E4431"/><rect x="6" y="3" width="3" height="1" fill="#6E4431"/><rect x="9" y="3" width="1" height="1" fill="#8E5B40"/><rect x="10" y="3" width="6" height="1" fill="#6E4431"/><rect x="16" y="3" width="1" height="1" fill="#8E5B40"/><rect x="17" y="3" width="3" height="1" fill="#6E4431"/><rect x="5" y="4" width="16" height="1" fill="#6E4431"/><rect x="5" y="5" width="16" height="1" fill="#39322F"/><rect x="5" y="6" width="1" height="1" fill="#C04A56"/><rect x="6" y="6" width="1" height="1" fill="#857D75"/><rect x="7" y="6" width="2" height="1" fill="#F4ECE1"/><rect x="9" y="6" width="1" height="1" fill="#857D75"/><rect x="10" y="6" width="4" height="1" fill="#C04A56"/><rect x="14" y="6" width="1" height="1" fill="#857D75"/><rect x="15" y="6" width="2" height="1" fill="#F4ECE1"/><rect x="17" y="6" width="1" height="1" fill="#857D75"/><rect x="18" y="6" width="2" height="1" fill="#C04A56"/><rect x="20" y="6" width="1" height="1" fill="#9A3743"/><rect x="23" y="6" width="2" height="1" fill="#94B07C"/><rect x="5" y="7" width="1" height="1" fill="#C04A56"/><rect x="6" y="7" width="1" height="1" fill="#857D75"/><rect x="7" y="7" width="1" height="1" fill="#F4ECE1"/><rect x="8" y="7" width="1" height="1" fill="#DDD3C6"/><rect x="9" y="7" width="1" height="1" fill="#857D75"/><rect x="10" y="7" width="4" height="1" fill="#C04A56"/><rect x="14" y="7" width="1" height="1" fill="#857D75"/><rect x="15" y="7" width="1" height="1" fill="#F4ECE1"/><rect x="16" y="7" width="1" height="1" fill="#DDD3C6"/><rect x="17" y="7" width="1" height="1" fill="#857D75"/><rect x="18" y="7" width="2" height="1" fill="#C04A56"/><rect x="20" y="7" width="1" height="1" fill="#9A3743"/><rect x="23" y="7" width="2" height="1" fill="#94B07C"/><rect x="5" y="8" width="2" height="1" fill="#C04A56"/><rect x="7" y="8" width="2" height="1" fill="#857D75"/><rect x="9" y="8" width="6" height="1" fill="#C04A56"/><rect x="15" y="8" width="2" height="1" fill="#857D75"/><rect x="17" y="8" width="3" height="1" fill="#C04A56"/><rect x="20" y="8" width="1" height="1" fill="#9A3743"/><rect x="23" y="8" width="1" height="1" fill="#6F8E5D"/><rect x="5" y="9" width="4" height="1" fill="#C04A56"/><rect x="11" y="9" width="4" height="1" fill="#C04A56"/><rect x="17" y="9" width="3" height="1" fill="#C04A56"/><rect x="20" y="9" width="1" height="1" fill="#9A3743"/><rect x="5" y="10" width="4" height="1" fill="#C04A56"/><rect x="11" y="10" width="4" height="1" fill="#C04A56"/><rect x="17" y="10" width="3" height="1" fill="#C04A56"/><rect x="20" y="10" width="1" height="1" fill="#9A3743"/><rect x="5" y="11" width="4" height="1" fill="#C04A56"/><rect x="11" y="11" width="4" height="1" fill="#C04A56"/><rect x="17" y="11" width="3" height="1" fill="#C04A56"/><rect x="20" y="11" width="1" height="1" fill="#9A3743"/><rect x="5" y="12" width="4" height="1" fill="#C04A56"/><rect x="11" y="12" width="4" height="1" fill="#C04A56"/><rect x="17" y="12" width="3" height="1" fill="#C04A56"/><rect x="20" y="12" width="1" height="1" fill="#9A3743"/><rect x="23" y="12" width="2" height="1" fill="#94B07C"/><rect x="5" y="13" width="15" height="1" fill="#C04A56"/><rect x="20" y="13" width="1" height="1" fill="#9A3743"/><rect x="22" y="13" width="2" height="1" fill="#94B07C"/><rect x="5" y="14" width="15" height="1" fill="#C04A56"/><rect x="20" y="14" width="1" height="1" fill="#9A3743"/><rect x="21" y="14" width="1" height="1" fill="#6F8E5D"/><rect x="5" y="15" width="15" height="1" fill="#C04A56"/><rect x="20" y="15" width="1" height="1" fill="#9A3743"/><rect x="5" y="16" width="15" height="1" fill="#C04A56"/><rect x="20" y="16" width="1" height="1" fill="#9A3743"/><rect x="5" y="17" width="15" height="1" fill="#C04A56"/><rect x="20" y="17" width="1" height="1" fill="#9A3743"/><rect x="5" y="18" width="16" height="1" fill="#C04A56"/><rect x="7" y="19" width="2" height="1" fill="#C04A56"/><rect x="17" y="19" width="2" height="1" fill="#C04A56"/><rect x="7" y="20" width="2" height="1" fill="#C04A56"/><rect x="17" y="20" width="2" height="1" fill="#C04A56"/></g></svg>