<svg xmlns="http://www.w3.org/2000/svg" viewBox="0 0 26 22" width="130" height="110" shape-rendering="crispEdges" role="img"><title>Capu: high</title><style>g[class]{visibility:hidden}.f0{animation:k0 1380ms step-end infinite}@keyframes k0{0%,0.000%{visibility:hidden}0.000%,15.942%{visibility:visible}15.942%,100%{visibility:hidden}}.f1{animation:k1 1380ms step-end infinite}@keyframes k1{0%,15.942%{visibility:hidden}15.942%,31.884%{visibility:visible}31.884%,100%{visibility:hidden}}.f2{animation:k2 1380ms step-end infinite}@keyframes k2{0%,31.884%{visibility:hidden}31.884%,47.826%{visibility:visible}47.826%,100%{visibility:hidden}}.f3{animation:k3 1380ms step-end infinite}@keyframes k3{0%,47.826%{visibility:hidden}47.826%,63.768%{visibility:visible}63.768%,100%{visibility:hidden}}.f4{animation:k4 1380ms step-end infinite}@keyframes k4{0%,63.768%{visibility:hidden}63.768%,100.000%{visibility:visible}100.000%,100%{visibility:hidden}}@media (prefers-reduced-motion:reduce){g[class]{animation:none!important}.f0{visibility:visible}}</style><g class="f0"><rect x="5" y="1" width="4" height="1" fill="#C04A56"/><rect x="5" y="2" width="4" height="1" fill="#C04A56"/><rect x="5" y="3" width="6" height="1" fill="#C04A56"/><rect x="13" y="3" width="4" height="1" fill="#C04A56"/><rect x="5" y="4" width="6" height="1" fill="#C04A56"/><rect x="13" y="4" width="4" height="1" fill="#C04A56"/><rect x="5" y="5" width="16" height="1" fill="#C04A56"/><rect x="2" y="6" width="1" height="1" fill="#DE6A79"/><rect x="5" y="6" width="16" height="1" fill="#DE6A79"/><rect x="2" y="7" width="3" height="1" fill="#DE6A79"/><rect x="5" y="7" width="16" height="1" fill="#B8404E"/><rect x="3" y="8" width="1" height="1" fill="#DE6A79"/><rect x="5" y="8" width="15" height="1" fill="#C04A56"/><rect x="20" y="8" width="1" height="1" fill="#9A3743"/><rect x="5" y="9" width="15" height="1" fill="#C04A56"/><rect x="20" y="9" width="1" height="1" fill="#9A3743"/><rect x="5" y="10" width="15" height="1" fill="#C04A56"/><rect x="20" y="10" width="1" height="1" fill="#9A3743"/><rect x="5" y="11" width="3" height="1" fill="#C04A56"/><rect x="11" y="11" width="4" height="1" fill="#C04A56"/><rect x="18" y="11" width="2" height="1" fill="#C04A56"/><rect x="20" y="11" width="1" height="1" fill="#9A3743"/><rect x="5" y="12" width="15" height="1" fill="#C04A56"/><rect x="20" y="12" width="1" height="1" fill="#9A3743"/><rect x="5" y="13" width="15" height="1" fill="#C04A56"/><rect x="20" y="13" width="1" height="1" fill="#9A3743"/><rect x="5" y="14" width="15" height="1" fill="#C04A56"/><rect x="20" y="14" width="1" height="1" fill="#9A3743"/><rect x="4" y="15" width="1" height="1" fill="#6F8E5D"/><rect x="5" y="15" width="15" height="1" fill="#C04A56"/><rect x="20" y="15" width="1" height="1" fill="#9A3743"/><rect x="21" y="15" width="1" height="1" fill="#6F8E5D"/><rect x="3" y="16" width="1" height="1" fill="#94B07C"/><rect x="5" y="16" width="15" height="1" fill="#C04A56"/><rect x="20" y="16" width="1" height="1" fill="#9A3743"/><rect x="22" y="16" width="1" height="1" fill="#94B07C"/><rect x="2" y="17" width="2" height="1" fill="#94B07C"/><rect x="5" y="17" width="15" height="1" fill="#C04A56"/><rect x="20" y="17" width="1" height="1" fill="#9A3743"/><rect x="22" y="17" width="2" height="1" fill="#94B07C"/><rect x="2" y="18" width="1" height="1" fill="#94B07C"/><rect x="5" y="18" width="16" height="1" fill="#C04A56"/><rect x="23" y="18" width="1" height="1" fill="#94B07C"/><rect x="7" y="19" width="2" height="1" fill="#C04A56"/><rect x="17" y="19" width="2" height="1" fill="#C04A56"/><rect x="7" y="20" width="2" height="1" fill="#C04A56"/><rect x="17" y="20" width="2" height="1" fill="#C04A56"/></g><g class="f1"><rect x="5" y="1" width="4" height="1" fill="#C04A56"/><rect x="5" y="2" width="4" height="1" fill="#C04A56"/><rect x="5" y="3" width="6" height="1" fill="#C04A56"/><rect x="13" y="3" width="4" height="1" fill="#C04A56"/><rect x="5" y="4" width="6" height="1" fill="#C04A56"/><rect x="13" y="4" width="4" height="1" fill="#C04A56"/><rect x="5" y="5" width="16" height="1" fill="#C04A56"/><rect x="5" y="6" width="16" height="1" fill="#DE6A79"/><rect x="2" y="7" width="3" height="1" fill="#DE6A79"/><rect x="5" y="7" width="16" height="1" fill="#B8404E"/><rect x="3" y="8" width="2" height="1" fill="#DE6A79"/><rect x="5" y="8" width="15" height="1" fill="#C04A56"/><rect x="20" y="8" width="1" height="1" fill="#9A3743"/><rect x="4" y="9" width="1" height="1" fill="#DE6A79"/><rect x="5" y="9" width="15" height="1" fill="#C04A56"/><rect x="20" y="9" width="1" height="1" fill="#9A3743"/><rect x="5" y="10" width="15" height="1" fill="#C04A56"/><rect x="20" y="10" width="1" height="1" fill="#9A3743"/><rect x="5" y="11" width="3" height="1" fill="#C04A56"/><rect x="11" y="11" width="4" height="1" fill="#C04A56"/><rect x="18" y="11" width="2" height="1" fill="#C04A56"/><rect x="20" y="11" width="1" height="1" fill="#9A3743"/><rect x="1" y="12" width="2" height="1" fill="#94B07C"/><rect x="5" y="12" width="15" height="1" fill="#C04A56"/><rect x="20" y="12" width="1" height="1" fill="#9A3743"/><rect x="23" y="12" width="2" height="1" fill="#94B07C"/><rect x="2" y="13" width="2" height="1" fill="#94B07C"/><rect x="5" y="13" width="15" height="1" fill="#C04A56"/><rect x="20" y="13" width="1" height="1" fill="#9A3743"/><rect x="22" y="13" width="2" height="1" fill="#94B07C"/><rect x="4" y="14" width="1" height="1" fill="#6F8E5D"/><rect x="5" y="14" width="15" height="1" fill="#C04A56"/><rect x="20" y="14" width="1" height="1" fill="#9A3743"/><rect x="21" y="14" width="1" height="1" fill="#6F8E5D"/><rect x="5" y="15" width="15" height="1" fill="#C04A56"/><rect x="20" y="15" width="1" height="1" fill="#9A3743"/><rect x="5" y="16" width="15" height="1" fill="#C04A56"/><rect x="20" y="16" width="1" height="1" fill="#9A3743"/><rect x="5" y="17" width="15" height="1" fill="#C04A56"/><rect x="20" y="17" width="1" height="1" fill="#9A3743"/><rect x="5" y="18" width="16" height="1" fill="#C04A56"/><rect x="7" y="19" width="2" height="1" fill="#C04A56"/><rect x="17" y="19" width="2" height="1" fill="#C04A56"/><rect x="7" y="20" width="2" height="1" fill="#C04A56"/><rect x="17" y="20" width="2" height="1" fill="#C04A56"/></g><g class="f2"><rect x="5" y="1" width="4" height="1" fill="#C04A56"/><rect x="5" y="2" width="4" height="1" fill="#C04A56"/><rect x="5" y="3" width="6" height="1" fill="#C04A56"/><rect x="13" y="3" width="4" height="1" fill="#C04A56"/><rect x="5" y="4" width="6" height="1" fill="#C04A56"/><rect x="13" y="4" width="4" height="1" fill="#C04A56"/><rect x="5" y="5" width="16" height="1" fill="#C04A56"/><rect x="2" y="6" width="1" height="1" fill="#DE6A79"/><rect x="5" y="6" width="16" height="1" fill="#DE6A79"/><rect x="2" y="7" width="3" height="1" fill="#DE6A79"/><rect x="5" y="7" width="16" height="1" fill="#B8404E"/><rect x="3" y="8" width="1" height="1" fill="#DE6A79"/><rect x="5" y="8" width="15" height="1" fill="#C04A56"/><rect x="20" y="8" width="1" height="1" fill="#9A3743"/><rect x="5" y="9" width="15" height="1" fill="#C04A56"/><rect x="20" y="9" width="1" height="1" fill="#9A3743"/><rect x="5" y="10" width="15" height="1" fill="#C04A56"/><rect x="20" y="10" width="1" height="1" fill="#9A3743"/><rect x="5" y="11" width="3" height="1" fill="#C04A56"/><rect x="11" y="11" width="4" height="1" fill="#C04A56"/><rect x="18" y="11" width="2" height="1" fill="#C04A56"/><rect x="20" y="11" width="1" height="1" fill="#9A3743"/><rect x="5" y="12" width="15" height="1" fill="#C04A56"/><rect x="20" y="12" width="1" height="1" fill="#9A3743"/><rect x="5" y="13" width="15" height="1" fill="#C04A56"/><rect x="20" y="13" width="1" height="1" fill="#9A3743"/><rect x="5" y="14" width="15" height="1" fill="#C04A56"/><rect x="20" y="14" width="1" height="1" fill="#9A3743"/><rect x="4" y="15" width="1" height="1" fill="#6F8E5D"/><rect x="5" y="15" width="15" height="1" fill="#C04A56"/><rect x="20" y="15" width="1" height="1" fill="#9A3743"/><rect x="21" y="15" width="1" height="1" fill="#6F8E5D"/><rect x="3" y="16" width="1" height="1" fill="#94B07C"/><rect x="5" y="16" width="15" height="1" fill="#C04A56"/><rect x="20" y="16" width="1" height="1" fill="#9A3743"/><rect x="22" y="16" width="1" height="1" fill="#94B07C"/><rect x="2" y="17" width="2" height="1" fill="#94B07C"/><rect x="5" y="17" width="15" height="1" fill="#C04A56"/><rect x="20" y="17" width="1" height="1" fill="#9A3743"/><rect x="22" y="17" width="2" height="1" fill="#94B07C"/><rect x="2" y="18" width="1" height="1" fill="#94B07C"/><rect x="5" y="18" width="16" height="1" fill="#C04A56"/><rect x="23" y="18" width="1" height="1" fill="#94B07C"/><rect x="7" y="19" width="2" height="1" fill="#C04A56"/><rect x="17" y="19" width="2" height="1" fill="#C04A56"/><rect x="7" y="20" width="2" height="1" fill="#C04A56"/><rect x="17" y="20" width="2" height="1" fill="#C04A56"/></g><g class="f3"><rect x="5" y="1" width="4" height="1" fill="#C04A56"/><rect x="5" y="2" width="4" height="1" fill="#C04A56"/><rect x="5" y="3" width="6" height="1" fill="#C04A56"/><rect x="13" y="3" width="4" height="1" fill="#C04A56"/><rect x="5" y="4" width="6" height="1" fill="#C04A56"/><rect x="13" y="4" width="4" height="1" fill="#C04A56"/><rect x="5" y="5" width="16" height="1" fill="#C04A56"/><rect x="5" y="6" width="16" height="1" fill="#DE6A79"/><rect x="2" y="7" width="3" height="1" fill="#DE6A79"/><rect x="5" y="7" width="16" height="1" fill="#B8404E"/><rect x="3" y="8" width="2" height="1" fill="#DE6A79"/><rect x="5" y="8" width="15" height="1" fill="#C04A56"/><rect x="20" y="8" width="1" height="1" fill="#9A3743"/><rect x="4" y="9" width="1" height="1" fill="#DE6A79"/><rect x="5" y="9" width="15" height="1" fill="#C04A56"/><rect x="20" y="9" width="1" height="1" fill="#9A3743"/><rect x="5" y="10" width="15" height="1" fill="#C04A56"/><rect x="20" y="10" width="1" height="1" fill="#9A3743"/><rect x="5" y="11" width="3" height="1" fill="#C04A56"/><rect x="11" y="11" width="4" height="1" fill="#C04A56"/><rect x="18" y="11" width="2" height="1" fill="#C04A56"/><rect x="20" y="11" width="1" height="1" fill="#9A3743"/><rect x="1" y="12" width="2" height="1" fill="#94B07C"/><rect x="5" y="12" width="15" height="1" fill="#C04A56"/><rect x="20" y="12" width="1" height="1" fill="#9A3743"/><rect x="23" y="12" width="2" height="1" fill="#94B07C"/><rect x="2" y="13" width="2" height="1" fill="#94B07C"/><rect x="5" y="13" width="15" height="1" fill="#C04A56"/><rect x="20" y="13" width="1" height="1" fill="#9A3743"/><rect x="22" y="13" width="2" height="1" fill="#94B07C"/><rect x="4" y="14" width="1" height="1" fill="#6F8E5D"/><rect x="5" y="14" width="15" height="1" fill="#C04A56"/><rect x="20" y="14" width="1" height="1" fill="#9A3743"/><rect x="21" y="14" width="1" height="1" fill="#6F8E5D"/><rect x="5" y="15" width="15" height="1" fill="#C04A56"/><rect x="20" y="15" width="1" height="1" fill="#9A3743"/><rect x="5" y="16" width="15" height="1" fill="#C04A56"/><rect x="20" y="16" width="1" height="1" fill="#9A3743"/><rect x="5" y="17" width="15" height="1" fill="#C04A56"/><rect x="20" y="17" width="1" height="1" fill="#9A3743"/><rect x="5" y="18" width="16" height="1" fill="#C04A56"/><rect x="7" y="19" width="2" height="1" fill="#C04A56"/><rect x="17" y="19" width="2" height="1" fill="#C04A56"/><rect x="7" y="20" width="2" height="1" fill="#C04A56"/><rect x="17" y="20" width="2" height="1" fill="#C04A56"/></g><g class="f4"><rect x="5" y="1" width="4" height="1" fill="#C04A56"/><rect x="5" y="2" width="4" height="1" fill="#C04A56"/><rect x="5" y="3" width="6" height="1" fill="#C04A56"/><rect x="13" y="3" width="4" height="1" fill="#C04A56"/><rect x="5" y="4" width="6" height="1" fill="#C04A56"/><rect x="13" y="4" width="4" height="1" fill="#C04A56"/><rect x="5" y="5" width="16" height="1" fill="#C04A56"/><rect x="2" y="6" width="1" height="1" fill="#DE6A79"/><rect x="5" y="6" width="16" height="1" fill="#DE6A79"/><rect x="2" y="7" width="3" height="1" fill="#DE6A79"/><rect x="5" y="7" width="16" height="1" fill="#B8404E"/><rect x="3" y="8" width="1" height="1" fill="#DE6A79"/><rect x="5" y="8" width="15" height="1" fill="#C04A56"/><rect x="20" y="8" width="1" height="1" fill="#9A3743"/><rect x="5" y="9" width="15" height="1" fill="#C04A56"/><rect x="20" y="9" width="1" height="1" fill="#9A3743"/><rect x="5" y="10" width="15" height="1" fill="#C04A56"/><rect x="20" y="10" width="1" height="1" fill="#9A3743"/><rect x="5" y="11" width="3" height="1" fill="#C04A56"/><rect x="11" y="11" width="4" height="1" fill="#C04A56"/><rect x="18" y="11" width="2" height="1" fill="#C04A56"/><rect x="20" y="11" width="1" height="1" fill="#9A3743"/><rect x="5" y="12" width="15" height="1" fill="#C04A56"/><rect x="20" y="12" width="1" height="1" fill="#9A3743"/><rect x="5" y="13" width="15" height="1" fill="#C04A56"/><rect x="20" y="13" width="1" height="1" fill="#9A3743"/><rect x="5" y="14" width="15" height="1" fill="#C04A56"/><rect x="20" y="14" width="1" height="1" fill="#9A3743"/><rect x="4" y="15" width="1" height="1" fill="#6F8E5D"/><rect x="5" y="15" width="15" height="1" fill="#C04A56"/><rect x="20" y="15" width="1" height="1" fill="#9A3743"/><rect x="21" y="15" width="1" height="1" fill="#6F8E5D"/><rect x="3" y="16" width="1" height="1" fill="#94B07C"/><rect x="5" y="16" width="15" height="1" fill="#C04A56"/><rect x="20" y="16" width="1" height="1" fill="#9A3743"/><rect x="22" y="16" width="1" height="1" fill="#94B07C"/><rect x="2" y="17" width="2" height="1" fill="#94B07C"/><rect x="5" y="17" width="15" height="1" fill="#C04A56"/><rect x="20" y="17" width="1" height="1" fill="#9A3743"/><rect x="22" y="17" width="2" height="1" fill="#94B07C"/><rect x="2" y="18" width="1" height="1" fill="#94B07C"/><rect x="5" y="18" width="16" height="1" fill="#C04A56"/><rect x="23" y="18" width="1" height="1" fill="#94B07C"/><rect x="7" y="19" width="2" height="1" fill="#C04A56"/><rect x="17" y="19" width="2" height="1" fill="#C04A56"/><rect x="7" y="20" width="2" height="1" fill="#C04A56"/><rect x="17" y="20" width="2" height="1" fill="#C04A56"/></g></svg>