<svg xmlns="http://www.w3.org/2000/svg" viewBox="0 0 50 24" width="250" height="120" shape-rendering="crispEdges" role="img"><title>Capu: waiting</title><style>g[class]{visibility:hidden}.f0{animation:k0 3720ms step-end infinite}@keyframes k0{0%,0.000%{visibility:hidden}0.000%,6.989%{visibility:visible}6.989%,100%{visibility:hidden}}.f1{animation:k1 3720ms step-end infinite}@keyframes k1{0%,6.989%{visibility:hidden}6.989%,13.978%{visibility:visible}13.978%,100%{visibility:hidden}}.f2{animation:k2 3720ms step-end infinite}@keyframes k2{0%,13.978%{visibility:hidden}13.978%,20.968%{visibility:visible}20.968%,100%{visibility:hidden}}.f3{animation:k3 3720ms step-end infinite}@keyframes k3{0%,20.968%{visibility:hidden}20.968%,27.957%{visibility:visible}27.957%,100%{visibility:hidden}}.f4{animation:k4 3720ms step-end infinite}@keyframes k4{0%,27.957%{visibility:hidden}27.957%,34.946%{visibility:visible}34.946%,100%{visibility:hidden}}.f5{animation:k5 3720ms step-end infinite}@keyframes k5{0%,34.946%{visibility:hidden}34.946%,41.935%{visibility:visible}41.935%,100%{visibility:hidden}}.f6{animation:k6 3720ms step-end infinite}@keyframes k6{0%,41.935%{visibility:hidden}41.935%,48.925%{visibility:visible}48.925%,100%{visibility:hidden}}.f7{animation:k7 3720ms step-end infinite}@keyframes k7{0%,48.925%{visibility:hidden}48.925%,55.914%{visibility:visible}55.914%,100%{visibility:hidden}}.f8{animation:k8 3720ms step-end infinite}@keyframes k8{0%,55.914%{visibility:hidden}55.914%,62.903%{visibility:visible}62.903%,100%{visibility:hidden}}.f9{animation:k9 3720ms step-end infinite}@keyframes k9{0%,62.903%{visibility:hidden}62.903%,69.892%{visibility:visible}69.892%,100%{visibility:hidden}}.f10{animation:k10 3720ms step-end infinite}@keyframes k10{0%,69.892%{visibility:hidden}69.892%,76.882%{visibility:visible}76.882%,100%{visibility:hidden}}.f11{animation:k11 3720ms step-end infinite}@keyframes k11{0%,76.882%{visibility:hidden}76.882%,83.871%{visibility:visible}83.871%,100%{visibility:hidden}}.f12{animation:k12 3720ms step-end infinite}@keyframes k12{0%,83.871%{visibility:hidden}83.871%,100.000%{visibility:visible}100.000%,100%{visibility:hidden}}@media (prefers-reduced-motion:reduce){g[class]{animation:none!important}.f0{visibility:visible}}</style><g class="f0"><rect x="35" y="1" width="14" height="1" fill="#39322F"/><rect x="35" y="2" width="1" height="1" fill="#39322F"/><rect x="37" y="2" width="1" height="1" fill="#A7C98A"/><rect x="48" y="2" width="1" height="1" fill="#39322F"/><rect x="17" y="3" width="4" height="1" fill="#C04A56"/><rect x="35" y="3" width="1" height="1" fill="#39322F"/><rect x="37" y="3" width="1" height="1" fill="#A7C98A"/><rect x="48" y="3" width="1" height="1" fill="#39322F"/><rect x="17" y="4" width="4" height="1" fill="#C04A56"/><rect x="35" y="4" width="14" height="1" fill="#39322F"/><rect x="17" y="5" width="6" height="1" fill="#C04A56"/><rect x="25" y="5" width="4" height="1" fill="#C04A56"/><rect x="17" y="6" width="6" height="1" fill="#C04A56"/><rect x="25" y="6" width="4" height="1" fill="#C04A56"/><rect x="17" y="7" width="16" height="1" fill="#C04A56"/><rect x="17" y="8" width="15" height="1" fill="#C04A56"/><rect x="32" y="8" width="1" height="1" fill="#9A3743"/><rect x="17" y="9" width="15" height="1" fill="#C04A56"/><rect x="32" y="9" width="1" height="1" fill="#9A3743"/><rect x="17" y="10" width="5" height="1" fill="#C04A56"/><rect x="24" y="10" width="4" height="1" fill="#C04A56"/><rect x="30" y="10" width="2" height="1" fill="#C04A56"/><rect x="32" y="10" width="1" height="1" fill="#9A3743"/><rect x="17" y="11" width="5" height="1" fill="#C04A56"/><rect x="24" y="11" width="4" height="1" fill="#C04A56"/><rect x="30" y="11" width="2" height="1" fill="#C04A56"/><rect x="32" y="11" width="1" height="1" fill="#9A3743"/><rect x="17" y="12" width="5" height="1" fill="#C04A56"/><rect x="24" y="12" width="4" height="1" fill="#C04A56"/><rect x="30" y="12" width="2" height="1" fill="#C04A56"/><rect x="32" y="12" width="1" height="1" fill="#9A3743"/><rect x="17" y="13" width="5" height="1" fill="#C04A56"/><rect x="24" y="13" width="4" height="1" fill="#C04A56"/><rect x="30" y="13" width="2" height="1" fill="#C04A56"/><rect x="32" y="13" width="1" height="1" fill="#9A3743"/><rect x="17" y="14" width="15" height="1" fill="#C04A56"/><rect x="32" y="14" width="1" height="1" fill="#9A3743"/><rect x="17" y="15" width="15" height="1" fill="#C04A56"/><rect x="32" y="15" width="1" height="1" fill="#9A3743"/><rect x="17" y="16" width="15" height="1" fill="#C04A56"/><rect x="32" y="16" width="1" height="1" fill="#9A3743"/><rect x="17" y="17" width="15" height="1" fill="#C04A56"/><rect x="32" y="17" width="1" height="1" fill="#9A3743"/><rect x="17" y="18" width="15" height="1" fill="#C04A56"/><rect x="32" y="18" width="1" height="1" fill="#9A3743"/><rect x="17" y="19" width="15" height="1" fill="#C04A56"/><rect x="32" y="19" width="1" height="1" fill="#9A3743"/><rect x="17" y="20" width="16" height="1" fill="#C04A56"/><rect x="19" y="21" width="2" height="1" fill="#C04A56"/><rect x="29" y="21" width="2" height="1" fill="#C04A56"/><rect x="19" y="22" width="2" height="1" fill="#C04A56"/><rect x="29" y="22" width="2" height="1" fill="#C04A56"/></g><g class="f1"><rect x="35" y="1" width="14" height="1" fill="#39322F"/><rect x="35" y="2" width="1" height="1" fill="#39322F"/><rect x="37" y="2" width="1" height="1" fill="#A7C98A"/><rect x="48" y="2" width="1" height="1" fill="#39322F"/><rect x="17" y="3" width="4" height="1" fill="#C04A56"/><rect x="35" y="3" width="1" height="1" fill="#39322F"/><rect x="37" y="3" width="1" height="1" fill="#A7C98A"/><rect x="48" y="3" width="1" height="1" fill="#39322F"/><rect x="17" y="4" width="4" height="1" fill="#C04A56"/><rect x="35" y="4" width="14" height="1" fill="#39322F"/><rect x="17" y="5" width="6" height="1" fill="#C04A56"/><rect x="25" y="5" width="4" height="1" fill="#C04A56"/><rect x="17" y="6" width="6" height="1" fill="#C04A56"/><rect x="25" y="6" width="4" height="1" fill="#C04A56"/><rect x="17" y="7" width="16" height="1" fill="#C04A56"/><rect x="17" y="8" width="15" height="1" fill="#C04A56"/><rect x="32" y="8" width="1" height="1" fill="#9A3743"/><rect x="17" y="9" width="15" height="1" fill="#C04A56"/><rect x="32" y="9" width="1" height="1" fill="#9A3743"/><rect x="17" y="10" width="5" height="1" fill="#C04A56"/><rect x="24" y="10" width="4" height="1" fill="#C04A56"/><rect x="30" y="10" width="2" height="1" fill="#C04A56"/><rect x="32" y="10" width="1" height="1" fill="#9A3743"/><rect x="17" y="11" width="5" height="1" fill="#C04A56"/><rect x="24" y="11" width="4" height="1" fill="#C04A56"/><rect x="30" y="11" width="2" height="1" fill="#C04A56"/><rect x="32" y="11" width="1" height="1" fill="#9A3743"/><rect x="17" y="12" width="5" height="1" fill="#C04A56"/><rect x="24" y="12" width="4" height="1" fill="#C04A56"/><rect x="30" y="12" width="2" height="1" fill="#C04A56"/><rect x="32" y="12" width="1" height="1" fill="#9A3743"/><rect x="17" y="13" width="5" height="1" fill="#C04A56"/><rect x="24" y="13" width="4" height="1" fill="#C04A56"/><rect x="30" y="13" width="2" height="1" fill="#C04A56"/><rect x="32" y="13" width="1" height="1" fill="#9A3743"/><rect x="17" y="14" width="15" height="1" fill="#C04A56"/><rect x="32" y="14" width="1" height="1" fill="#9A3743"/><rect x="17" y="15" width="15" height="1" fill="#C04A56"/><rect x="32" y="15" width="1" height="1" fill="#9A3743"/><rect x="17" y="16" width="15" height="1" fill="#C04A56"/><rect x="32" y="16" width="1" height="1" fill="#9A3743"/><rect x="17" y="17" width="15" height="1" fill="#C04A56"/><rect x="32" y="17" width="1" height="1" fill="#9A3743"/><rect x="17" y="18" width="15" height="1" fill="#C04A56"/><rect x="32" y="18" width="1" height="1" fill="#9A3743"/><rect x="17" y="19" width="15" height="1" fill="#C04A56"/><rect x="32" y="19" width="1" height="1" fill="#9A3743"/><rect x="17" y="20" width="16" height="1" fill="#C04A56"/><rect x="19" y="21" width="2" height="1" fill="#C04A56"/><rect x="29" y="21" width="2" height="1" fill="#C04A56"/><rect x="19" y="22" width="2" height="1" fill="#C04A56"/></g><g class="f2"><rect x="35" y="1" width="14" height="1" fill="#39322F"/><rect x="35" y="2" width="1" height="1" fill="#39322F"/><rect x="37" y="2" width="2" height="1" fill="#A7C98A"/><rect x="48" y="2" width="1" height="1" fill="#39322F"/><rect x="17" y="3" width="4" height="1" fill="#C04A56"/><rect x="35" y="3" width="1" height="1" fill="#39322F"/><rect x="37" y="3" width="2" height="1" fill="#A7C98A"/><rect x="48" y="3" width="1" height="1" fill="#39322F"/><rect x="17" y="4" width="4" height="1" fill="#C04A56"/><rect x="35" y="4" width="14" height="1" fill="#39322F"/><rect x="17" y="5" width="6" height="1" fill="#C04A56"/><rect x="25" y="5" width="4" height="1" fill="#C04A56"/><rect x="17" y="6" width="6" height="1" fill="#C04A56"/><rect x="25" y="6" width="4" height="1" fill="#C04A56"/><rect x="17" y="7" width="16" height="1" fill="#C04A56"/><rect x="17" y="8" width="15" height="1" fill="#C04A56"/><rect x="32" y="8" width="1" height="1" fill="#9A3743"/><rect x="17" y="9" width="15" height="1" fill="#C04A56"/><rect x="32" y="9" width="1" height="1" fill="#9A3743"/><rect x="17" y="10" width="5" height="1" fill="#C04A56"/><rect x="24" y="10" width="4" height="1" fill="#C04A56"/><rect x="30" y="10" width="2" height="1" fill="#C04A56"/><rect x="32" y="10" width="1" height="1" fill="#9A3743"/><rect x="17" y="11" width="5" height="1" fill="#C04A56"/><rect x="24" y="11" width="4" height="1" fill="#C04A56"/><rect x="30" y="11" width="2" height="1" fill="#C04A56"/><rect x="32" y="11" width="1" height="1" fill="#9A3743"/><rect x="17" y="12" width="5" height="1" fill="#C04A56"/><rect x="24" y="12" width="4" height="1" fill="#C04A56"/><rect x="30" y="12" width="2" height="1" fill="#C04A56"/><rect x="32" y="12" width="1" height="1" fill="#9A3743"/><rect x="17" y="13" width="5" height="1" fill="#C04A56"/><rect x="24" y="13" width="4" height="1" fill="#C04A56"/><rect x="30" y="13" width="2" height="1" fill="#C04A56"/><rect x="32" y="13" width="1" height="1" fill="#9A3743"/><rect x="17" y="14" width="15" height="1" fill="#C04A56"/><rect x="32" y="14" width="1" height="1" fill="#9A3743"/><rect x="17" y="15" width="15" height="1" fill="#C04A56"/><rect x="32" y="15" width="1" height="1" fill="#9A3743"/><rect x="17" y="16" width="15" height="1" fill="#C04A56"/><rect x="32" y="16" width="1" height="1" fill="#9A3743"/><rect x="17" y="17" width="15" height="1" fill="#C04A56"/><rect x="32" y="17" width="1" height="1" fill="#9A3743"/><rect x="17" y="18" width="15" height="1" fill="#C04A56"/><rect x="32" y="18" width="1" height="1" fill="#9A3743"/><rect x="17" y="19" width="15" height="1" fill="#C04A56"/><rect x="32" y="19" width="1" height="1" fill="#9A3743"/><rect x="17" y="20" width="16" height="1" fill="#C04A56"/><rect x="19" y="21" width="2" height="1" fill="#C04A56"/><rect x="29" y="21" width="2" height="1" fill="#C04A56"/><rect x="19" y="22" width="2" height="1" fill="#C04A56"/><rect x="29" y="22" width="2" height="1" fill="#C04A56"/></g><g class="f3"><rect x="35" y="1" width="14" height="1" fill="#39322F"/><rect x="35" y="2" width="1" height="1" fill="#39322F"/><rect x="37" y="2" width="2" height="1" fill="#A7C98A"/><rect x="48" y="2" width="1" height="1" fill="#39322F"/><rect x="17" y="3" width="4" height="1" fill="#C04A56"/><rect x="35" y="3" width="1" height="1" fill="#39322F"/><rect x="37" y="3" width="2" height="1" fill="#A7C98A"/><rect x="48" y="3" width="1" height="1" fill="#39322F"/><rect x="17" y="4" width="4" height="1" fill="#C04A56"/><rect x="35" y="4" width="14" height="1" fill="#39322F"/><rect x="17" y="5" width="6" height="1" fill="#C04A56"/><rect x="25" y="5" width="4" height="1" fill="#C04A56"/><rect x="17" y="6" width="6" height="1" fill="#C04A56"/><rect x="25" y="6" width="4" height="1" fill="#C04A56"/><rect x="17" y="7" width="16" height="1" fill="#C04A56"/><rect x="17" y="8" width="15" height="1" fill="#C04A56"/><rect x="32" y="8" width="1" height="1" fill="#9A3743"/><rect x="17" y="9" width="15" height="1" fill="#C04A56"/><rect x="32" y="9" width="1" height="1" fill="#9A3743"/><rect x="17" y="10" width="5" height="1" fill="#C04A56"/><rect x="24" y="10" width="4" height="1" fill="#C04A56"/><rect x="30" y="10" width="2" height="1" fill="#C04A56"/><rect x="32" y="10" width="1" height="1" fill="#9A3743"/><rect x="17" y="11" width="5" height="1" fill="#C04A56"/><rect x="24" y="11" width="4" height="1" fill="#C04A56"/><rect x="30" y="11" width="2" height="1" fill="#C04A56"/><rect x="32" y="11" width="1" height="1" fill="#9A3743"/><rect x="17" y="12" width="5" height="1" fill="#C04A56"/><rect x="24" y="12" width="4" height="1" fill="#C04A56"/><rect x="30" y="12" width="2" height="1" fill="#C04A56"/><rect x="32" y="12" width="1" height="1" fill="#9A3743"/><rect x="17" y="13" width="5" height="1" fill="#C04A56"/><rect x="24" y="13" width="4" height="1" fill="#C04A56"/><rect x="30" y="13" width="2" height="1" fill="#C04A56"/><rect x="32" y="13" width="1" height="1" fill="#9A3743"/><rect x="17" y="14" width="15" height="1" fill="#C04A56"/><rect x="32" y="14" width="1" height="1" fill="#9A3743"/><rect x="17" y="15" width="15" height="1" fill="#C04A56"/><rect x="32" y="15" width="1" height="1" fill="#9A3743"/><rect x="17" y="16" width="15" height="1" fill="#C04A56"/><rect x="32" y="16" width="1" height="1" fill="#9A3743"/><rect x="17" y="17" width="15" height="1" fill="#C04A56"/><rect x="32" y="17" width="1" height="1" fill="#9A3743"/><rect x="17" y="18" width="15" height="1" fill="#C04A56"/><rect x="32" y="18" width="1" height="1" fill="#9A3743"/><rect x="17" y="19" width="15" height="1" fill="#C04A56"/><rect x="32" y="19" width="1" height="1" fill="#9A3743"/><rect x="17" y="20" width="16" height="1" fill="#C04A56"/><rect x="19" y="21" width="2" height="1" fill="#C04A56"/><rect x="29" y="21" width="2" height="1" fill="#C04A56"/><rect x="19" y="22" width="2" height="1" fill="#C04A56"/></g><g class="f4"><rect x="35" y="1" width="14" height="1" fill="#39322F"/><rect x="35" y="2" width="1" height="1" fill="#39322F"/><rect x="37" y="2" width="3" height="1" fill="#A7C98A"/><rect x="48" y="2" width="1" height="1" fill="#39322F"/><rect x="17" y="3" width="4" height="1" fill="#C04A56"/><rect x="35" y="3" width="1" height="1" fill="#39322F"/><rect x="37" y="3" width="3" height="1" fill="#A7C98A"/><rect x="48" y="3" width="1" height="1" fill="#39322F"/><rect x="17" y="4" width="4" height="1" fill="#C04A56"/><rect x="35" y="4" width="14" height="1" fill="#39322F"/><rect x="17" y="5" width="6" height="1" fill="#C04A56"/><rect x="25" y="5" width="4" height="1" fill="#C04A56"/><rect x="17" y="6" width="6" height="1" fill="#C04A56"/><rect x="25" y="6" width="4" height="1" fill="#C04A56"/><rect x="17" y="7" width="16" height="1" fill="#C04A56"/><rect x="17" y="8" width="15" height="1" fill="#C04A56"/><rect x="32" y="8" width="1" height="1" fill="#9A3743"/><rect x="17" y="9" width="15" height="1" fill="#C04A56"/><rect x="32" y="9" width="1" height="1" fill="#9A3743"/><rect x="17" y="10" width="15" height="1" fill="#C04A56"/><rect x="32" y="10" width="1" height="1" fill="#9A3743"/><rect x="17" y="11" width="15" height="1" fill="#C04A56"/><rect x="32" y="11" width="1" height="1" fill="#9A3743"/><rect x="17" y="12" width="15" height="1" fill="#C04A56"/><rect x="32" y="12" width="1" height="1" fill="#9A3743"/><rect x="17" y="13" width="15" height="1" fill="#C04A56"/><rect x="32" y="13" width="1" height="1" fill="#9A3743"/><rect x="17" y="14" width="4" height="1" fill="#C04A56"/><rect x="23" y="14" width="4" height="1" fill="#C04A56"/><rect x="29" y="14" width="3" height="1" fill="#C04A56"/><rect x="32" y="14" width="1" height="1" fill="#9A3743"/><rect x="17" y="15" width="15" height="1" fill="#C04A56"/><rect x="32" y="15" width="1" height="1" fill="#9A3743"/><rect x="17" y="16" width="15" height="1" fill="#C04A56"/><rect x="32" y="16" width="1" height="1" fill="#9A3743"/><rect x="17" y="17" width="15" height="1" fill="#C04A56"/><rect x="32" y="17" width="1" height="1" fill="#9A3743"/><rect x="17" y="18" width="15" height="1" fill="#C04A56"/><rect x="32" y="18" width="1" height="1" fill="#9A3743"/><rect x="17" y="19" width="15" height="1" fill="#C04A56"/><rect x="32" y="19" width="1" height="1" fill="#9A3743"/><rect x="17" y="20" width="16" height="1" fill="#C04A56"/><rect x="19" y="21" width="2" height="1" fill="#C04A56"/><rect x="29" y="21" width="2" height="1" fill="#C04A56"/><rect x="19" y="22" width="2" height="1" fill="#C04A56"/><rect x="29" y="22" width="2" height="1" fill="#C04A56"/></g><g class="f5"><rect x="35" y="1" width="14" height="1" fill="#39322F"/><rect x="35" y="2" width="1" height="1" fill="#39322F"/><rect x="37" y="2" width="4" height="1" fill="#A7C98A"/><rect x="48" y="2" width="1" height="1" fill="#39322F"/><rect x="17" y="3" width="4" height="1" fill="#C04A56"/><rect x="35" y="3" width="1" height="1" fill="#39322F"/><rect x="37" y="3" width="4" height="1" fill="#A7C98A"/><rect x="48" y="3" width="1" height="1" fill="#39322F"/><rect x="17" y="4" width="4" height="1" fill="#C04A56"/><rect x="35" y="4" width="14" height="1" fill="#39322F"/><rect x="17" y="5" width="6" height="1" fill="#C04A56"/><rect x="25" y="5" width="4" height="1" fill="#C04A56"/><rect x="17" y="6" width="6" height="1" fill="#C04A56"/><rect x="25" y="6" width="4" height="1" fill="#C04A56"/><rect x="17" y="7" width="16" height="1" fill="#C04A56"/><rect x="17" y="8" width="15" height="1" fill="#C04A56"/><rect x="32" y="8" width="1" height="1" fill="#9A3743"/><rect x="17" y="9" width="15" height="1" fill="#C04A56"/><rect x="32" y="9" width="1" height="1" fill="#9A3743"/><rect x="17" y="10" width="5" height="1" fill="#C04A56"/><rect x="24" y="10" width="4" height="1" fill="#C04A56"/><rect x="30" y="10" width="2" height="1" fill="#C04A56"/><rect x="32" y="10" width="1" height="1" fill="#9A3743"/><rect x="17" y="11" width="5" height="1" fill="#C04A56"/><rect x="24" y="11" width="4" height="1" fill="#C04A56"/><rect x="30" y="11" width="2" height="1" fill="#C04A56"/><rect x="32" y="11" width="1" height="1" fill="#9A3743"/><rect x="17" y="12" width="5" height="1" fill="#C04A56"/><rect x="24" y="12" width="4" height="1" fill="#C04A56"/><rect x="30" y="12" width="2" height="1" fill="#C04A56"/><rect x="32" y="12" width="1" height="1" fill="#9A3743"/><rect x="17" y="13" width="5" height="1" fill="#C04A56"/><rect x="24" y="13" width="4" height="1" fill="#C04A56"/><rect x="30" y="13" width="2" height="1" fill="#C04A56"/><rect x="32" y="13" width="1" height="1" fill="#9A3743"/><rect x="17" y="14" width="15" height="1" fill="#C04A56"/><rect x="32" y="14" width="1" height="1" fill="#9A3743"/><rect x="17" y="15" width="15" height="1" fill="#C04A56"/><rect x="32" y="15" width="1" height="1" fill="#9A3743"/><rect x="17" y="16" width="15" height="1" fill="#C04A56"/><rect x="32" y="16" width="1" height="1" fill="#9A3743"/><rect x="17" y="17" width="15" height="1" fill="#C04A56"/><rect x="32" y="17" width="1" height="1" fill="#9A3743"/><rect x="17" y="18" width="15" height="1" fill="#C04A56"/><rect x="32" y="18" width="1" height="1" fill="#9A3743"/><rect x="17" y="19" width="15" height="1" fill="#C04A56"/><rect x="32" y="19" width="1" height="1" fill="#9A3743"/><rect x="17" y="20" width="16" height="1" fill="#C04A56"/><rect x="19" y="21" width="2" height="1" fill="#C04A56"/><rect x="29" y="21" width="2" height="1" fill="#C04A56"/><rect x="19" y="22" width="2" height="1" fill="#C04A56"/></g><g class="f6"><rect x="35" y="1" width="14" height="1" fill="#39322F"/><rect x="35" y="2" width="1" height="1" fill="#39322F"/><rect x="37" y="2" width="4" height="1" fill="#A7C98A"/><rect x="48" y="2" width="1" height="1" fill="#39322F"/><rect x="17" y="3" width="4" height="1" fill="#C04A56"/><rect x="35" y="3" width="1" height="1" fill="#39322F"/><rect x="37" y="3" width="4" height="1" fill="#A7C98A"/><rect x="48" y="3" width="1" height="1" fill="#39322F"/><rect x="17" y="4" width="4" height="1" fill="#C04A56"/><rect x="35" y="4" width="14" height="1" fill="#39322F"/><rect x="17" y="5" width="6" height="1" fill="#C04A56"/><rect x="25" y="5" width="4" height="1" fill="#C04A56"/><rect x="17" y="6" width="6" height="1" fill="#C04A56"/><rect x="25" y="6" width="4" height="1" fill="#C04A56"/><rect x="17" y="7" width="16" height="1" fill="#C04A56"/><rect x="17" y="8" width="15" height="1" fill="#C04A56"/><rect x="32" y="8" width="1" height="1" fill="#9A3743"/><rect x="17" y="9" width="15" height="1" fill="#C04A56"/><rect x="32" y="9" width="1" height="1" fill="#9A3743"/><rect x="17" y="10" width="5" height="1" fill="#C04A56"/><rect x="24" y="10" width="4" height="1" fill="#C04A56"/><rect x="30" y="10" width="2" height="1" fill="#C04A56"/><rect x="32" y="10" width="1" height="1" fill="#9A3743"/><rect x="17" y="11" width="5" height="1" fill="#C04A56"/><rect x="24" y="11" width="4" height="1" fill="#C04A56"/><rect x="30" y="11" width="2" height="1" fill="#C04A56"/><rect x="32" y="11" width="1" height="1" fill="#9A3743"/><rect x="17" y="12" width="5" height="1" fill="#C04A56"/><rect x="24" y="12" width="4" height="1" fill="#C04A56"/><rect x="30" y="12" width="2" height="1" fill="#C04A56"/><rect x="32" y="12" width="1" height="1" fill="#9A3743"/><rect x="17" y="13" width="5" height="1" fill="#C04A56"/><rect x="24" y="13" width="4" height="1" fill="#C04A56"/><rect x="30" y="13" width="2" height="1" fill="#C04A56"/><rect x="32" y="13" width="1" height="1" fill="#9A3743"/><rect x="17" y="14" width="15" height="1" fill="#C04A56"/><rect x="32" y="14" width="1" height="1" fill="#9A3743"/><rect x="17" y="15" width="15" height="1" fill="#C04A56"/><rect x="32" y="15" width="1" height="1" fill="#9A3743"/><rect x="17" y="16" width="15" height="1" fill="#C04A56"/><rect x="32" y="16" width="1" height="1" fill="#9A3743"/><rect x="17" y="17" width="15" height="1" fill="#C04A56"/><rect x="32" y="17" width="1" height="1" fill="#9A3743"/><rect x="17" y="18" width="15" height="1" fill="#C04A56"/><rect x="32" y="18" width="1" height="1" fill="#9A3743"/><rect x="17" y="19" width="15" height="1" fill="#C04A56"/><rect x="32" y="19" width="1" height="1" fill="#9A3743"/><rect x="17" y="20" width="16" height="1" fill="#C04A56"/><rect x="19" y="21" width="2" height="1" fill="#C04A56"/><rect x="29" y="21" width="2" height="1" fill="#C04A56"/><rect x="19" y="22" width="2" height="1" fill="#C04A56"/><rect x="29" y="22" width="2" height="1" fill="#C04A56"/></g><g class="f7"><rect x="35" y="1" width="14" height="1" fill="#39322F"/><rect x="35" y="2" width="1" height="1" fill="#39322F"/><rect x="37" y="2" width="5" height="1" fill="#A7C98A"/><rect x="48" y="2" width="1" height="1" fill="#39322F"/><rect x="17" y="3" width="4" height="1" fill="#C04A56"/><rect x="35" y="3" width="1" height="1" fill="#39322F"/><rect x="37" y="3" width="5" height="1" fill="#A7C98A"/><rect x="48" y="3" width="1" height="1" fill="#39322F"/><rect x="17" y="4" width="4" height="1" fill="#C04A56"/><rect x="35" y="4" width="14" height="1" fill="#39322F"/><rect x="17" y="5" width="6" height="1" fill="#C04A56"/><rect x="25" y="5" width="4" height="1" fill="#C04A56"/><rect x="17" y="6" width="6" height="1" fill="#C04A56"/><rect x="25" y="6" width="4" height="1" fill="#C04A56"/><rect x="17" y="7" width="16" height="1" fill="#C04A56"/><rect x="17" y="8" width="15" height="1" fill="#C04A56"/><rect x="32" y="8" width="1" height="1" fill="#9A3743"/><rect x="17" y="9" width="15" height="1" fill="#C04A56"/><rect x="32" y="9" width="1" height="1" fill="#9A3743"/><rect x="17" y="10" width="5" height="1" fill="#C04A56"/><rect x="24" y="10" width="4" height="1" fill="#C04A56"/><rect x="30" y="10" width="2" height="1" fill="#C04A56"/><rect x="32" y="10" width="1" height="1" fill="#9A3743"/><rect x="17" y="11" width="5" height="1" fill="#C04A56"/><rect x="24" y="11" width="4" height="1" fill="#C04A56"/><rect x="30" y="11" width="2" height="1" fill="#C04A56"/><rect x="32" y="11" width="1" height="1" fill="#9A3743"/><rect x="17" y="12" width="5" height="1" fill="#C04A56"/><rect x="24" y="12" width="4" height="1" fill="#C04A56"/><rect x="30" y="12" width="2" height="1" fill="#C04A56"/><rect x="32" y="12" width="1" height="1" fill="#9A3743"/><rect x="17" y="13" width="5" height="1" fill="#C04A56"/><rect x="24" y="13" width="4" height="1" fill="#C04A56"/><rect x="30" y="13" width="2" height="1" fill="#C04A56"/><rect x="32" y="13" width="1" height="1" fill="#9A3743"/><rect x="17" y="14" width="15" height="1" fill="#C04A56"/><rect x="32" y="14" width="1" height="1" fill="#9A3743"/><rect x="17" y="15" width="15" height="1" fill="#C04A56"/><rect x="32" y="15" width="1" height="1" fill="#9A3743"/><rect x="17" y="16" width="15" height="1" fill="#C04A56"/><rect x="32" y="16" width="1" height="1" fill="#9A3743"/><rect x="17" y="17" width="15" height="1" fill="#C04A56"/><rect x="32" y="17" width="1" height="1" fill="#9A3743"/><rect x="17" y="18" width="15" height="1" fill="#C04A56"/><rect x="32" y="18" width="1" height="1" fill="#9A3743"/><rect x="17" y="19" width="15" height="1" fill="#C04A56"/><rect x="32" y="19" width="1" height="1" fill="#9A3743"/><rect x="17" y="20" width="16" height="1" fill="#C04A56"/><rect x="19" y="21" width="2" height="1" fill="#C04A56"/><rect x="29" y="21" width="2" height="1" fill="#C04A56"/><rect x="19" y="22" width="2" height="1" fill="#C04A56"/></g><g class="f8"><rect x="35" y="1" width="14" height="1" fill="#39322F"/><rect x="35" y="2" width="1" height="1" fill="#39322F"/><rect x="37" y="2" width="6" height="1" fill="#A7C98A"/><rect x="48" y="2" width="1" height="1" fill="#39322F"/><rect x="17" y="3" width="4" height="1" fill="#C04A56"/><rect x="35" y="3" width="1" height="1" fill="#39322F"/><rect x="37" y="3" width="6" height="1" fill="#A7C98A"/><rect x="48" y="3" width="1" height="1" fill="#39322F"/><rect x="17" y="4" width="4" height="1" fill="#C04A56"/><rect x="35" y="4" width="14" height="1" fill="#39322F"/><rect x="17" y="5" width="6" height="1" fill="#C04A56"/><rect x="25" y="5" width="4" height="1" fill="#C04A56"/><rect x="17" y="6" width="6" height="1" fill="#C04A56"/><rect x="25" y="6" width="4" height="1" fill="#C04A56"/><rect x="17" y="7" width="16" height="1" fill="#C04A56"/><rect x="17" y="8" width="15" height="1" fill="#C04A56"/><rect x="32" y="8" width="1" height="1" fill="#9A3743"/><rect x="17" y="9" width="15" height="1" fill="#C04A56"/><rect x="32" y="9" width="1" height="1" fill="#9A3743"/><rect x="17" y="10" width="5" height="1" fill="#C04A56"/><rect x="24" y="10" width="4" height="1" fill="#C04A56"/><rect x="30" y="10" width="2" height="1" fill="#C04A56"/><rect x="32" y="10" width="1" height="1" fill="#9A3743"/><rect x="17" y="11" width="5" height="1" fill="#C04A56"/><rect x="24" y="11" width="4" height="1" fill="#C04A56"/><rect x="30" y="11" width="2" height="1" fill="#C04A56"/><rect x="32" y="11" width="1" height="1" fill="#9A3743"/><rect x="17" y="12" width="5" height="1" fill="#C04A56"/><rect x="24" y="12" width="4" height="1" fill="#C04A56"/><rect x="30" y="12" width="2" height="1" fill="#C04A56"/><rect x="32" y="12" width="1" height="1" fill="#9A3743"/><rect x="17" y="13" width="5" height="1" fill="#C04A56"/><rect x="24" y="13" width="4" height="1" fill="#C04A56"/><rect x="30" y="13" width="2" height="1" fill="#C04A56"/><rect x="32" y="13" width="1" height="1" fill="#9A3743"/><rect x="17" y="14" width="15" height="1" fill="#C04A56"/><rect x="32" y="14" width="1" height="1" fill="#9A3743"/><rect x="17" y="15" width="15" height="1" fill="#C04A56"/><rect x="32" y="15" width="1" height="1" fill="#9A3743"/><rect x="17" y="16" width="15" height="1" fill="#C04A56"/><rect x="32" y="16" width="1" height="1" fill="#9A3743"/><rect x="17" y="17" width="15" height="1" fill="#C04A56"/><rect x="32" y="17" width="1" height="1" fill="#9A3743"/><rect x="17" y="18" width="15" height="1" fill="#C04A56"/><rect x="32" y="18" width="1" height="1" fill="#9A3743"/><rect x="17" y="19" width="15" height="1" fill="#C04A56"/><rect x="32" y="19" width="1" height="1" fill="#9A3743"/><rect x="17" y="20" width="16" height="1" fill="#C04A56"/><rect x="19" y="21" width="2" height="1" fill="#C04A56"/><rect x="29" y="21" width="2" height="1" fill="#C04A56"/><rect x="19" y="22" width="2" height="1" fill="#C04A56"/><rect x="29" y="22" width="2" height="1" fill="#C04A56"/></g><g class="f9"><rect x="35" y="1" width="14" height="1" fill="#39322F"/><rect x="35" y="2" width="1" height="1" fill="#39322F"/><rect x="37" y="2" width="8" height="1" fill="#A7C98A"/><rect x="48" y="2" width="1" height="1" fill="#39322F"/><rect x="17" y="3" width="4" height="1" fill="#C04A56"/><rect x="35" y="3" width="1" height="1" fill="#39322F"/><rect x="37" y="3" width="8" height="1" fill="#A7C98A"/><rect x="48" y="3" width="1" height="1" fill="#39322F"/><rect x="17" y="4" width="4" height="1" fill="#C04A56"/><rect x="35" y="4" width="14" height="1" fill="#39322F"/><rect x="17" y="5" width="6" height="1" fill="#C04A56"/><rect x="25" y="5" width="4" height="1" fill="#C04A56"/><rect x="17" y="6" width="6" height="1" fill="#C04A56"/><rect x="25" y="6" width="4" height="1" fill="#C04A56"/><rect x="17" y="7" width="16" height="1" fill="#C04A56"/><rect x="17" y="8" width="15" height="1" fill="#C04A56"/><rect x="32" y="8" width="1" height="1" fill="#9A3743"/><rect x="17" y="9" width="15" height="1" fill="#C04A56"/><rect x="32" y="9" width="1" height="1" fill="#9A3743"/><rect x="17" y="10" width="15" height="1" fill="#C04A56"/><rect x="32" y="10" width="1" height="1" fill="#9A3743"/><rect x="17" y="11" width="15" height="1" fill="#C04A56"/><rect x="32" y="11" width="1" height="1" fill="#9A3743"/><rect x="17" y="12" width="15" height="1" fill="#C04A56"/><rect x="32" y="12" width="1" height="1" fill="#9A3743"/><rect x="17" y="13" width="15" height="1" fill="#C04A56"/><rect x="32" y="13" width="1" height="1" fill="#9A3743"/><rect x="17" y="14" width="4" height="1" fill="#C04A56"/><rect x="23" y="14" width="4" height="1" fill="#C04A56"/><rect x="29" y="14" width="3" height="1" fill="#C04A56"/><rect x="32" y="14" width="1" height="1" fill="#9A3743"/><rect x="17" y="15" width="15" height="1" fill="#C04A56"/><rect x="32" y="15" width="1" height="1" fill="#9A3743"/><rect x="17" y="16" width="15" height="1" fill="#C04A56"/><rect x="32" y="16" width="1" height="1" fill="#9A3743"/><rect x="17" y="17" width="15" height="1" fill="#C04A56"/><rect x="32" y="17" width="1" height="1" fill="#9A3743"/><rect x="17" y="18" width="15" height="1" fill="#C04A56"/><rect x="32" y="18" width="1" height="1" fill="#9A3743"/><rect x="17" y="19" width="15" height="1" fill="#C04A56"/><rect x="32" y="19" width="1" height="1" fill="#9A3743"/><rect x="17" y="20" width="16" height="1" fill="#C04A56"/><rect x="19" y="21" width="2" height="1" fill="#C04A56"/><rect x="29" y="21" width="2" height="1" fill="#C04A56"/><rect x="19" y="22" width="2" height="1" fill="#C04A56"/></g><g class="f10"><rect x="35" y="1" width="14" height="1" fill="#39322F"/><rect x="35" y="2" width="1" height="1" fill="#39322F"/><rect x="37" y="2" width="9" height="1" fill="#A7C98A"/><rect x="48" y="2" width="1" height="1" fill="#39322F"/><rect x="17" y="3" width="4" height="1" fill="#C04A56"/><rect x="35" y="3" width="1" height="1" fill="#39322F"/><rect x="37" y="3" width="9" height="1" fill="#A7C98A"/><rect x="48" y="3" width="1" height="1" fill="#39322F"/><rect x="17" y="4" width="4" height="1" fill="#C04A56"/><rect x="35" y="4" width="14" height="1" fill="#39322F"/><rect x="17" y="5" width="6" height="1" fill="#C04A56"/><rect x="25" y="5" width="4" height="1" fill="#C04A56"/><rect x="17" y="6" width="6" height="1" fill="#C04A56"/><rect x="25" y="6" width="4" height="1" fill="#C04A56"/><rect x="17" y="7" width="16" height="1" fill="#C04A56"/><rect x="17" y="8" width="15" height="1" fill="#C04A56"/><rect x="32" y="8" width="1" height="1" fill="#9A3743"/><rect x="17" y="9" width="15" height="1" fill="#C04A56"/><rect x="32" y="9" width="1" height="1" fill="#9A3743"/><rect x="17" y="10" width="5" height="1" fill="#C04A56"/><rect x="24" y="10" width="4" height="1" fill="#C04A56"/><rect x="30" y="10" width="2" height="1" fill="#C04A56"/><rect x="32" y="10" width="1" height="1" fill="#9A3743"/><rect x="17" y="11" width="5" height="1" fill="#C04A56"/><rect x="24" y="11" width="4" height="1" fill="#C04A56"/><rect x="30" y="11" width="2" height="1" fill="#C04A56"/><rect x="32" y="11" width="1" height="1" fill="#9A3743"/><rect x="17" y="12" width="5" height="1" fill="#C04A56"/><rect x="24" y="12" width="4" height="1" fill="#C04A56"/><rect x="30" y="12" width="2" height="1" fill="#C04A56"/><rect x="32" y="12" width="1" height="1" fill="#9A3743"/><rect x="17" y="13" width="5" height="1" fill="#C04A56"/><rect x="24" y="13" width="4" height="1" fill="#C04A56"/><rect x="30" y="13" width="2" height="1" fill="#C04A56"/><rect x="32" y="13" width="1" height="1" fill="#9A3743"/><rect x="17" y="14" width="15" height="1" fill="#C04A56"/><rect x="32" y="14" width="1" height="1" fill="#9A3743"/><rect x="17" y="15" width="15" height="1" fill="#C04A56"/><rect x="32" y="15" width="1" height="1" fill="#9A3743"/><rect x="17" y="16" width="15" height="1" fill="#C04A56"/><rect x="32" y="16" width="1" height="1" fill="#9A3743"/><rect x="17" y="17" width="15" height="1" fill="#C04A56"/><rect x="32" y="17" width="1" height="1" fill="#9A3743"/><rect x="17" y="18" width="15" height="1" fill="#C04A56"/><rect x="32" y="18" width="1" height="1" fill="#9A3743"/><rect x="17" y="19" width="15" height="1" fill="#C04A56"/><rect x="32" y="19" width="1" height="1" fill="#9A3743"/><rect x="17" y="20" width="16" height="1" fill="#C04A56"/><rect x="19" y="21" width="2" height="1" fill="#C04A56"/><rect x="29" y="21" width="2" height="1" fill="#C04A56"/><rect x="19" y="22" width="2" height="1" fill="#C04A56"/><rect x="29" y="22" width="2" height="1" fill="#C04A56"/></g><g class="f11"><rect x="35" y="1" width="14" height="1" fill="#39322F"/><rect x="35" y="2" width="1" height="1" fill="#39322F"/><rect x="37" y="2" width="10" height="1" fill="#A7C98A"/><rect x="48" y="2" width="1" height="1" fill="#39322F"/><rect x="17" y="3" width="4" height="1" fill="#C04A56"/><rect x="35" y="3" width="1" height="1" fill="#39322F"/><rect x="37" y="3" width="10" height="1" fill="#A7C98A"/><rect x="48" y="3" width="1" height="1" fill="#39322F"/><rect x="17" y="4" width="4" height="1" fill="#C04A56"/><rect x="35" y="4" width="14" height="1" fill="#39322F"/><rect x="17" y="5" width="6" height="1" fill="#C04A56"/><rect x="25" y="5" width="4" height="1" fill="#C04A56"/><rect x="17" y="6" width="6" height="1" fill="#C04A56"/><rect x="25" y="6" width="4" height="1" fill="#C04A56"/><rect x="17" y="7" width="16" height="1" fill="#C04A56"/><rect x="17" y="8" width="15" height="1" fill="#C04A56"/><rect x="32" y="8" width="1" height="1" fill="#9A3743"/><rect x="17" y="9" width="15" height="1" fill="#C04A56"/><rect x="32" y="9" width="1" height="1" fill="#9A3743"/><rect x="17" y="10" width="5" height="1" fill="#C04A56"/><rect x="24" y="10" width="4" height="1" fill="#C04A56"/><rect x="30" y="10" width="2" height="1" fill="#C04A56"/><rect x="32" y="10" width="1" height="1" fill="#9A3743"/><rect x="17" y="11" width="5" height="1" fill="#C04A56"/><rect x="24" y="11" width="4" height="1" fill="#C04A56"/><rect x="30" y="11" width="2" height="1" fill="#C04A56"/><rect x="32" y="11" width="1" height="1" fill="#9A3743"/><rect x="17" y="12" width="5" height="1" fill="#C04A56"/><rect x="24" y="12" width="4" height="1" fill="#C04A56"/><rect x="30" y="12" width="2" height="1" fill="#C04A56"/><rect x="32" y="12" width="1" height="1" fill="#9A3743"/><rect x="17" y="13" width="5" height="1" fill="#C04A56"/><rect x="24" y="13" width="4" height="1" fill="#C04A56"/><rect x="30" y="13" width="2" height="1" fill="#C04A56"/><rect x="32" y="13" width="1" height="1" fill="#9A3743"/><rect x="17" y="14" width="15" height="1" fill="#C04A56"/><rect x="32" y="14" width="1" height="1" fill="#9A3743"/><rect x="17" y="15" width="15" height="1" fill="#C04A56"/><rect x="32" y="15" width="1" height="1" fill="#9A3743"/><rect x="17" y="16" width="15" height="1" fill="#C04A56"/><rect x="32" y="16" width="1" height="1" fill="#9A3743"/><rect x="17" y="17" width="15" height="1" fill="#C04A56"/><rect x="32" y="17" width="1" height="1" fill="#9A3743"/><rect x="17" y="18" width="15" height="1" fill="#C04A56"/><rect x="32" y="18" width="1" height="1" fill="#9A3743"/><rect x="17" y="19" width="15" height="1" fill="#C04A56"/><rect x="32" y="19" width="1" height="1" fill="#9A3743"/><rect x="17" y="20" width="16" height="1" fill="#C04A56"/><rect x="19" y="21" width="2" height="1" fill="#C04A56"/><rect x="29" y="21" width="2" height="1" fill="#C04A56"/><rect x="19" y="22" width="2" height="1" fill="#C04A56"/></g><g class="f12"><rect x="35" y="1" width="14" height="1" fill="#39322F"/><rect x="35" y="2" width="1" height="1" fill="#39322F"/><rect x="37" y="2" width="10" height="1" fill="#A7C98A"/><rect x="48" y="2" width="1" height="1" fill="#39322F"/><rect x="17" y="3" width="4" height="1" fill="#C04A56"/><rect x="35" y="3" width="1" height="1" fill="#39322F"/><rect x="37" y="3" width="10" height="1" fill="#A7C98A"/><rect x="48" y="3" width="1" height="1" fill="#39322F"/><rect x="17" y="4" width="4" height="1" fill="#C04A56"/><rect x="35" y="4" width="14" height="1" fill="#39322F"/><rect x="17" y="5" width="6" height="1" fill="#C04A56"/><rect x="25" y="5" width="4" height="1" fill="#C04A56"/><rect x="17" y="6" width="6" height="1" fill="#C04A56"/><rect x="25" y="6" width="4" height="1" fill="#C04A56"/><rect x="17" y="7" width="16" height="1" fill="#C04A56"/><rect x="17" y="8" width="15" height="1" fill="#C04A56"/><rect x="32" y="8" width="1" height="1" fill="#9A3743"/><rect x="17" y="9" width="15" height="1" fill="#C04A56"/><rect x="32" y="9" width="1" height="1" fill="#9A3743"/><rect x="17" y="10" width="5" height="1" fill="#C04A56"/><rect x="24" y="10" width="4" height="1" fill="#C04A56"/><rect x="30" y="10" width="2" height="1" fill="#C04A56"/><rect x="32" y="10" width="1" height="1" fill="#9A3743"/><rect x="17" y="11" width="5" height="1" fill="#C04A56"/><rect x="24" y="11" width="4" height="1" fill="#C04A56"/><rect x="30" y="11" width="2" height="1" fill="#C04A56"/><rect x="32" y="11" width="1" height="1" fill="#9A3743"/><rect x="17" y="12" width="5" height="1" fill="#C04A56"/><rect x="24" y="12" width="4" height="1" fill="#C04A56"/><rect x="30" y="12" width="2" height="1" fill="#C04A56"/><rect x="32" y="12" width="1" height="1" fill="#9A3743"/><rect x="17" y="13" width="5" height="1" fill="#C04A56"/><rect x="24" y="13" width="4" height="1" fill="#C04A56"/><rect x="30" y="13" width="2" height="1" fill="#C04A56"/><rect x="32" y="13" width="1" height="1" fill="#9A3743"/><rect x="17" y="14" width="15" height="1" fill="#C04A56"/><rect x="32" y="14" width="1" height="1" fill="#9A3743"/><rect x="17" y="15" width="15" height="1" fill="#C04A56"/><rect x="32" y="15" width="1" height="1" fill="#9A3743"/><rect x="17" y="16" width="15" height="1" fill="#C04A56"/><rect x="32" y="16" width="1" height="1" fill="#9A3743"/><rect x="17" y="17" width="15" height="1" fill="#C04A56"/><rect x="32" y="17" width="1" height="1" fill="#9A3743"/><rect x="17" y="18" width="15" height="1" fill="#C04A56"/><rect x="32" y="18" width="1" height="1" fill="#9A3743"/><rect x="17" y="19" width="15" height="1" fill="#C04A56"/><rect x="32" y="19" width="1" height="1" fill="#9A3743"/><rect x="17" y="20" width="16" height="1" fill="#C04A56"/><rect x="19" y="21" width="2" height="1" fill="#C04A56"/><rect x="29" y="21" width="2" height="1" fill="#C04A56"/><rect x="19" y="22" width="2" height="1" fill="#C04A56"/><rect x="29" y="22" width="2" height="1" fill="#C04A56"/></g></svg>