<svg xmlns="http://www.w3.org/2000/svg" viewBox="0 0 42 18" width="210" height="90" shape-rendering="crispEdges" role="img"><title>Capu: wilt</title><style>g[class]{visibility:hidden}.f0{animation:k0 1660ms step-end infinite}@keyframes k0{0%,0.000%{visibility:hidden}0.000%,22.892%{visibility:visible}22.892%,100%{visibility:hidden}}.f1{animation:k1 1660ms step-end infinite}@keyframes k1{0%,22.892%{visibility:hidden}22.892%,45.783%{visibility:visible}45.783%,100%{visibility:hidden}}.f2{animation:k2 1660ms step-end infinite}@keyframes k2{0%,45.783%{visibility:hidden}45.783%,68.675%{visibility:visible}68.675%,100%{visibility:hidden}}.f3{animation:k3 1660ms step-end infinite}@keyframes k3{0%,68.675%{visibility:hidden}68.675%,77.108%{visibility:visible}77.108%,100%{visibility:hidden}}.f4{animation:k4 1660ms step-end infinite}@keyframes k4{0%,77.108%{visibility:hidden}77.108%,100.000%{visibility:visible}100.000%,100%{visibility:hidden}}@media (prefers-reduced-motion:reduce){g[class]{animation:none!important}.f0{visibility:visible}}</style><g class="f0"><rect x="10" y="1" width="8" height="1" fill="#C04A56"/><rect x="20" y="1" width="4" height="1" fill="#C04A56"/><rect x="9" y="2" width="2" height="1" fill="#C04A56"/><rect x="13" y="2" width="16" height="1" fill="#C04A56"/><rect x="13" y="3" width="16" height="1" fill="#C04A56"/><rect x="13" y="4" width="15" height="1" fill="#C04A56"/><rect x="28" y="4" width="1" height="1" fill="#9A3743"/><rect x="13" y="5" width="15" height="1" fill="#C04A56"/><rect x="28" y="5" width="1" height="1" fill="#9A3743"/><rect x="13" y="6" width="15" height="1" fill="#C04A56"/><rect x="28" y="6" width="1" height="1" fill="#9A3743"/><rect x="39" y="6" width="1" height="1" fill="#F09AA6"/><rect x="13" y="7" width="15" height="1" fill="#C04A56"/><rect x="28" y="7" width="1" height="1" fill="#9A3743"/><rect x="38" y="7" width="1" height="1" fill="#E7B447"/><rect x="13" y="8" width="15" height="1" fill="#C04A56"/><rect x="28" y="8" width="1" height="1" fill="#9A3743"/><rect x="37" y="8" width="1" height="1" fill="#E7B447"/><rect x="13" y="9" width="4" height="1" fill="#C04A56"/><rect x="19" y="9" width="4" height="1" fill="#C04A56"/><rect x="25" y="9" width="3" height="1" fill="#C04A56"/><rect x="28" y="9" width="1" height="1" fill="#9A3743"/><rect x="32" y="9" width="4" height="1" fill="#F4ECE1"/><rect x="36" y="9" width="1" height="1" fill="#1F1918"/><rect x="37" y="9" width="3" height="1" fill="#F4ECE1"/><rect x="13" y="10" width="4" height="1" fill="#C04A56"/><rect x="19" y="10" width="4" height="1" fill="#C04A56"/><rect x="25" y="10" width="3" height="1" fill="#C04A56"/><rect x="28" y="10" width="1" height="1" fill="#9A3743"/><rect x="32" y="10" width="1" height="1" fill="#F4ECE1"/><rect x="33" y="10" width="6" height="1" fill="#B9AEA1"/><rect x="39" y="10" width="1" height="1" fill="#F4ECE1"/><rect x="13" y="11" width="15" height="1" fill="#C04A56"/><rect x="28" y="11" width="1" height="1" fill="#9A3743"/><rect x="32" y="11" width="8" height="1" fill="#F4ECE1"/><rect x="13" y="12" width="15" height="1" fill="#C04A56"/><rect x="28" y="12" width="1" height="1" fill="#9A3743"/><rect x="32" y="12" width="1" height="1" fill="#F4ECE1"/><rect x="33" y="12" width="5" height="1" fill="#B9AEA1"/><rect x="38" y="12" width="2" height="1" fill="#F4ECE1"/><rect x="7" y="13" width="2" height="1" fill="#CFC8BF"/><rect x="9" y="13" width="1" height="1" fill="#A8A097"/><rect x="13" y="13" width="15" height="1" fill="#C04A56"/><rect x="28" y="13" width="1" height="1" fill="#9A3743"/><rect x="32" y="13" width="8" height="1" fill="#F4ECE1"/><rect x="6" y="14" width="1" height="1" fill="#CFC8BF"/><rect x="7" y="14" width="1" height="1" fill="#1F1918"/><rect x="8" y="14" width="1" height="1" fill="#E7B447"/><rect x="9" y="14" width="1" height="1" fill="#1F1918"/><rect x="10" y="14" width="1" height="1" fill="#CFC8BF"/><rect x="11" y="14" width="1" height="1" fill="#A8A097"/><rect x="13" y="14" width="16" height="1" fill="#C04A56"/><rect x="32" y="14" width="1" height="1" fill="#F4ECE1"/><rect x="33" y="14" width="6" height="1" fill="#B9AEA1"/><rect x="39" y="14" width="1" height="1" fill="#F4ECE1"/><rect x="7" y="15" width="1" height="1" fill="#A8A097"/><rect x="8" y="15" width="2" height="1" fill="#1F1918"/><rect x="10" y="15" width="1" height="1" fill="#E7B447"/><rect x="11" y="15" width="1" height="1" fill="#A8A097"/><rect x="15" y="15" width="2" height="1" fill="#C04A56"/><rect x="25" y="15" width="2" height="1" fill="#C04A56"/><rect x="29" y="15" width="1" height="1" fill="#6F8E5D"/><rect x="30" y="15" width="1" height="1" fill="#94B07C"/><rect x="32" y="15" width="8" height="1" fill="#F4ECE1"/><rect x="6" y="16" width="2" height="1" fill="#CFC8BF"/><rect x="8" y="16" width="2" height="1" fill="#857D75"/><rect x="10" y="16" width="1" height="1" fill="#CFC8BF"/><rect x="15" y="16" width="2" height="1" fill="#C04A56"/><rect x="25" y="16" width="2" height="1" fill="#C04A56"/><rect x="30" y="16" width="2" height="1" fill="#94B07C"/><rect x="32" y="16" width="8" height="1" fill="#DDD3C6"/></g><g class="f1"><rect x="10" y="1" width="8" height="1" fill="#C04A56"/><rect x="20" y="1" width="4" height="1" fill="#C04A56"/><rect x="9" y="2" width="2" height="1" fill="#C04A56"/><rect x="13" y="2" width="16" height="1" fill="#C04A56"/><rect x="13" y="3" width="16" height="1" fill="#C04A56"/><rect x="13" y="4" width="15" height="1" fill="#C04A56"/><rect x="28" y="4" width="1" height="1" fill="#9A3743"/><rect x="13" y="5" width="15" height="1" fill="#C04A56"/><rect x="28" y="5" width="1" height="1" fill="#9A3743"/><rect x="13" y="6" width="15" height="1" fill="#C04A56"/><rect x="28" y="6" width="1" height="1" fill="#9A3743"/><rect x="13" y="7" width="15" height="1" fill="#C04A56"/><rect x="28" y="7" width="1" height="1" fill="#9A3743"/><rect x="40" y="7" width="1" height="1" fill="#F09AA6"/><rect x="13" y="8" width="15" height="1" fill="#C04A56"/><rect x="28" y="8" width="1" height="1" fill="#9A3743"/><rect x="39" y="8" width="1" height="1" fill="#E7B447"/><rect x="13" y="9" width="4" height="1" fill="#C04A56"/><rect x="19" y="9" width="4" height="1" fill="#C04A56"/><rect x="25" y="9" width="3" height="1" fill="#C04A56"/><rect x="28" y="9" width="1" height="1" fill="#9A3743"/><rect x="32" y="9" width="6" height="1" fill="#F4ECE1"/><rect x="38" y="9" width="1" height="1" fill="#E7B447"/><rect x="39" y="9" width="1" height="1" fill="#F4ECE1"/><rect x="13" y="10" width="4" height="1" fill="#C04A56"/><rect x="19" y="10" width="4" height="1" fill="#C04A56"/><rect x="25" y="10" width="3" height="1" fill="#C04A56"/><rect x="28" y="10" width="1" height="1" fill="#9A3743"/><rect x="32" y="10" width="1" height="1" fill="#F4ECE1"/><rect x="33" y="10" width="4" height="1" fill="#B9AEA1"/><rect x="37" y="10" width="1" height="1" fill="#1F1918"/><rect x="38" y="10" width="1" height="1" fill="#B9AEA1"/><rect x="39" y="10" width="1" height="1" fill="#F4ECE1"/><rect x="13" y="11" width="15" height="1" fill="#C04A56"/><rect x="28" y="11" width="1" height="1" fill="#9A3743"/><rect x="32" y="11" width="8" height="1" fill="#F4ECE1"/><rect x="13" y="12" width="15" height="1" fill="#C04A56"/><rect x="28" y="12" width="1" height="1" fill="#9A3743"/><rect x="32" y="12" width="1" height="1" fill="#F4ECE1"/><rect x="33" y="12" width="5" height="1" fill="#B9AEA1"/><rect x="38" y="12" width="2" height="1" fill="#F4ECE1"/><rect x="7" y="13" width="2" height="1" fill="#CFC8BF"/><rect x="9" y="13" width="1" height="1" fill="#A8A097"/><rect x="13" y="13" width="15" height="1" fill="#C04A56"/><rect x="28" y="13" width="1" height="1" fill="#9A3743"/><rect x="32" y="13" width="8" height="1" fill="#F4ECE1"/><rect x="6" y="14" width="1" height="1" fill="#CFC8BF"/><rect x="7" y="14" width="1" height="1" fill="#1F1918"/><rect x="8" y="14" width="1" height="1" fill="#E7B447"/><rect x="9" y="14" width="1" height="1" fill="#1F1918"/><rect x="10" y="14" width="1" height="1" fill="#CFC8BF"/><rect x="11" y="14" width="1" height="1" fill="#A8A097"/><rect x="13" y="14" width="16" height="1" fill="#C04A56"/><rect x="32" y="14" width="1" height="1" fill="#F4ECE1"/><rect x="33" y="14" width="6" height="1" fill="#B9AEA1"/><rect x="39" y="14" width="1" height="1" fill="#F4ECE1"/><rect x="7" y="15" width="1" height="1" fill="#A8A097"/><rect x="8" y="15" width="2" height="1" fill="#1F1918"/><rect x="10" y="15" width="1" height="1" fill="#E7B447"/><rect x="11" y="15" width="1" height="1" fill="#A8A097"/><rect x="15" y="15" width="2" height="1" fill="#C04A56"/><rect x="25" y="15" width="2" height="1" fill="#C04A56"/><rect x="29" y="15" width="1" height="1" fill="#6F8E5D"/><rect x="30" y="15" width="1" height="1" fill="#94B07C"/><rect x="32" y="15" width="8" height="1" fill="#F4ECE1"/><rect x="6" y="16" width="2" height="1" fill="#CFC8BF"/><rect x="8" y="16" width="2" height="1" fill="#857D75"/><rect x="10" y="16" width="1" height="1" fill="#CFC8BF"/><rect x="15" y="16" width="2" height="1" fill="#C04A56"/><rect x="25" y="16" width="2" height="1" fill="#C04A56"/><rect x="30" y="16" width="2" height="1" fill="#94B07C"/><rect x="32" y="16" width="8" height="1" fill="#DDD3C6"/></g><g class="f2"><rect x="10" y="1" width="8" height="1" fill="#C04A56"/><rect x="20" y="1" width="4" height="1" fill="#C04A56"/><rect x="9" y="2" width="2" height="1" fill="#C04A56"/><rect x="13" y="2" width="16" height="1" fill="#C04A56"/><rect x="13" y="3" width="16" height="1" fill="#C04A56"/><rect x="13" y="4" width="15" height="1" fill="#C04A56"/><rect x="28" y="4" width="1" height="1" fill="#9A3743"/><rect x="13" y="5" width="15" height="1" fill="#C04A56"/><rect x="28" y="5" width="1" height="1" fill="#9A3743"/><rect x="13" y="6" width="15" height="1" fill="#C04A56"/><rect x="28" y="6" width="1" height="1" fill="#9A3743"/><rect x="39" y="6" width="1" height="1" fill="#F09AA6"/><rect x="13" y="7" width="15" height="1" fill="#C04A56"/><rect x="28" y="7" width="1" height="1" fill="#9A3743"/><rect x="38" y="7" width="1" height="1" fill="#E7B447"/><rect x="13" y="8" width="15" height="1" fill="#C04A56"/><rect x="28" y="8" width="1" height="1" fill="#9A3743"/><rect x="37" y="8" width="1" height="1" fill="#E7B447"/><rect x="13" y="9" width="4" height="1" fill="#C04A56"/><rect x="19" y="9" width="4" height="1" fill="#C04A56"/><rect x="25" y="9" width="3" height="1" fill="#C04A56"/><rect x="28" y="9" width="1" height="1" fill="#9A3743"/><rect x="32" y="9" width="4" height="1" fill="#F4ECE1"/><rect x="36" y="9" width="1" height="1" fill="#1F1918"/><rect x="37" y="9" width="3" height="1" fill="#F4ECE1"/><rect x="13" y="10" width="4" height="1" fill="#C04A56"/><rect x="19" y="10" width="4" height="1" fill="#C04A56"/><rect x="25" y="10" width="3" height="1" fill="#C04A56"/><rect x="28" y="10" width="1" height="1" fill="#9A3743"/><rect x="32" y="10" width="1" height="1" fill="#F4ECE1"/><rect x="33" y="10" width="6" height="1" fill="#B9AEA1"/><rect x="39" y="10" width="1" height="1" fill="#F4ECE1"/><rect x="13" y="11" width="15" height="1" fill="#C04A56"/><rect x="28" y="11" width="1" height="1" fill="#9A3743"/><rect x="32" y="11" width="8" height="1" fill="#F4ECE1"/><rect x="13" y="12" width="15" height="1" fill="#C04A56"/><rect x="28" y="12" width="1" height="1" fill="#9A3743"/><rect x="32" y="12" width="1" height="1" fill="#F4ECE1"/><rect x="33" y="12" width="5" height="1" fill="#B9AEA1"/><rect x="38" y="12" width="2" height="1" fill="#F4ECE1"/><rect x="7" y="13" width="2" height="1" fill="#CFC8BF"/><rect x="9" y="13" width="1" height="1" fill="#A8A097"/><rect x="13" y="13" width="15" height="1" fill="#C04A56"/><rect x="28" y="13" width="1" height="1" fill="#9A3743"/><rect x="32" y="13" width="8" height="1" fill="#F4ECE1"/><rect x="6" y="14" width="1" height="1" fill="#CFC8BF"/><rect x="7" y="14" width="1" height="1" fill="#1F1918"/><rect x="8" y="14" width="1" height="1" fill="#E7B447"/><rect x="9" y="14" width="1" height="1" fill="#1F1918"/><rect x="10" y="14" width="1" height="1" fill="#CFC8BF"/><rect x="11" y="14" width="1" height="1" fill="#A8A097"/><rect x="13" y="14" width="16" height="1" fill="#C04A56"/><rect x="32" y="14" width="1" height="1" fill="#F4ECE1"/><rect x="33" y="14" width="6" height="1" fill="#B9AEA1"/><rect x="39" y="14" width="1" height="1" fill="#F4ECE1"/><rect x="7" y="15" width="1" height="1" fill="#A8A097"/><rect x="8" y="15" width="2" height="1" fill="#1F1918"/><rect x="10" y="15" width="1" height="1" fill="#E7B447"/><rect x="11" y="15" width="1" height="1" fill="#A8A097"/><rect x="15" y="15" width="2" height="1" fill="#C04A56"/><rect x="25" y="15" width="2" height="1" fill="#C04A56"/><rect x="29" y="15" width="1" height="1" fill="#6F8E5D"/><rect x="30" y="15" width="1" height="1" fill="#94B07C"/><rect x="32" y="15" width="8" height="1" fill="#F4ECE1"/><rect x="6" y="16" width="2" height="1" fill="#CFC8BF"/><rect x="8" y="16" width="2" height="1" fill="#857D75"/><rect x="10" y="16" width="1" height="1" fill="#CFC8BF"/><rect x="15" y="16" width="2" height="1" fill="#C04A56"/><rect x="25" y="16" width="2" height="1" fill="#C04A56"/><rect x="30" y="16" width="2" height="1" fill="#94B07C"/><rect x="32" y="16" width="8" height="1" fill="#DDD3C6"/></g><g class="f3"><rect x="10" y="1" width="8" height="1" fill="#C04A56"/><rect x="20" y="1" width="4" height="1" fill="#C04A56"/><rect x="9" y="2" width="2" height="1" fill="#C04A56"/><rect x="13" y="2" width="16" height="1" fill="#C04A56"/><rect x="13" y="3" width="16" height="1" fill="#C04A56"/><rect x="13" y="4" width="15" height="1" fill="#C04A56"/><rect x="28" y="4" width="1" height="1" fill="#9A3743"/><rect x="13" y="5" width="15" height="1" fill="#C04A56"/><rect x="28" y="5" width="1" height="1" fill="#9A3743"/><rect x="13" y="6" width="15" height="1" fill="#C04A56"/><rect x="28" y="6" width="1" height="1" fill="#9A3743"/><rect x="13" y="7" width="15" height="1" fill="#C04A56"/><rect x="28" y="7" width="1" height="1" fill="#9A3743"/><rect x="40" y="7" width="1" height="1" fill="#F09AA6"/><rect x="13" y="8" width="15" height="1" fill="#C04A56"/><rect x="28" y="8" width="1" height="1" fill="#9A3743"/><rect x="39" y="8" width="1" height="1" fill="#E7B447"/><rect x="13" y="9" width="15" height="1" fill="#C04A56"/><rect x="28" y="9" width="1" height="1" fill="#9A3743"/><rect x="32" y="9" width="6" height="1" fill="#F4ECE1"/><rect x="38" y="9" width="1" height="1" fill="#E7B447"/><rect x="39" y="9" width="1" height="1" fill="#F4ECE1"/><rect x="13" y="10" width="4" height="1" fill="#C04A56"/><rect x="19" y="10" width="4" height="1" fill="#C04A56"/><rect x="25" y="10" width="3" height="1" fill="#C04A56"/><rect x="28" y="10" width="1" height="1" fill="#9A3743"/><rect x="32" y="10" width="1" height="1" fill="#F4ECE1"/><rect x="33" y="10" width="4" height="1" fill="#B9AEA1"/><rect x="37" y="10" width="1" height="1" fill="#1F1918"/><rect x="38" y="10" width="1" height="1" fill="#B9AEA1"/><rect x="39" y="10" width="1" height="1" fill="#F4ECE1"/><rect x="13" y="11" width="15" height="1" fill="#C04A56"/><rect x="28" y="11" width="1" height="1" fill="#9A3743"/><rect x="32" y="11" width="8" height="1" fill="#F4ECE1"/><rect x="13" y="12" width="15" height="1" fill="#C04A56"/><rect x="28" y="12" width="1" height="1" fill="#9A3743"/><rect x="32" y="12" width="1" height="1" fill="#F4ECE1"/><rect x="33" y="12" width="5" height="1" fill="#B9AEA1"/><rect x="38" y="12" width="2" height="1" fill="#F4ECE1"/><rect x="7" y="13" width="2" height="1" fill="#CFC8BF"/><rect x="9" y="13" width="1" height="1" fill="#A8A097"/><rect x="13" y="13" width="15" height="1" fill="#C04A56"/><rect x="28" y="13" width="1" height="1" fill="#9A3743"/><rect x="32" y="13" width="8" height="1" fill="#F4ECE1"/><rect x="6" y="14" width="1" height="1" fill="#CFC8BF"/><rect x="7" y="14" width="1" height="1" fill="#1F1918"/><rect x="8" y="14" width="1" height="1" fill="#E7B447"/><rect x="9" y="14" width="1" height="1" fill="#1F1918"/><rect x="10" y="14" width="1" height="1" fill="#CFC8BF"/><rect x="11" y="14" width="1" height="1" fill="#A8A097"/><rect x="13" y="14" width="16" height="1" fill="#C04A56"/><rect x="32" y="14" width="1" height="1" fill="#F4ECE1"/><rect x="33" y="14" width="6" height="1" fill="#B9AEA1"/><rect x="39" y="14" width="1" height="1" fill="#F4ECE1"/><rect x="7" y="15" width="1" height="1" fill="#A8A097"/><rect x="8" y="15" width="2" height="1" fill="#1F1918"/><rect x="10" y="15" width="1" height="1" fill="#E7B447"/><rect x="11" y="15" width="1" height="1" fill="#A8A097"/><rect x="15" y="15" width="2" height="1" fill="#C04A56"/><rect x="25" y="15" width="2" height="1" fill="#C04A56"/><rect x="29" y="15" width="1" height="1" fill="#6F8E5D"/><rect x="30" y="15" width="1" height="1" fill="#94B07C"/><rect x="32" y="15" width="8" height="1" fill="#F4ECE1"/><rect x="6" y="16" width="2" height="1" fill="#CFC8BF"/><rect x="8" y="16" width="2" height="1" fill="#857D75"/><rect x="10" y="16" width="1" height="1" fill="#CFC8BF"/><rect x="15" y="16" width="2" height="1" fill="#C04A56"/><rect x="25" y="16" width="2" height="1" fill="#C04A56"/><rect x="30" y="16" width="2" height="1" fill="#94B07C"/><rect x="32" y="16" width="8" height="1" fill="#DDD3C6"/></g><g class="f4"><rect x="10" y="1" width="8" height="1" fill="#C04A56"/><rect x="20" y="1" width="4" height="1" fill="#C04A56"/><rect x="9" y="2" width="2" height="1" fill="#C04A56"/><rect x="13" y="2" width="16" height="1" fill="#C04A56"/><rect x="13" y="3" width="16" height="1" fill="#C04A56"/><rect x="13" y="4" width="15" height="1" fill="#C04A56"/><rect x="28" y="4" width="1" height="1" fill="#9A3743"/><rect x="13" y="5" width="15" height="1" fill="#C04A56"/><rect x="28" y="5" width="1" height="1" fill="#9A3743"/><rect x="13" y="6" width="15" height="1" fill="#C04A56"/><rect x="28" y="6" width="1" height="1" fill="#9A3743"/><rect x="13" y="7" width="15" height="1" fill="#C04A56"/><rect x="28" y="7" width="1" height="1" fill="#9A3743"/><rect x="40" y="7" width="1" height="1" fill="#F09AA6"/><rect x="13" y="8" width="15" height="1" fill="#C04A56"/><rect x="28" y="8" width="1" height="1" fill="#9A3743"/><rect x="39" y="8" width="1" height="1" fill="#E7B447"/><rect x="13" y="9" width="4" height="1" fill="#C04A56"/><rect x="19" y="9" width="4" height="1" fill="#C04A56"/><rect x="25" y="9" width="3" height="1" fill="#C04A56"/><rect x="28" y="9" width="1" height="1" fill="#9A3743"/><rect x="32" y="9" width="6" height="1" fill="#F4ECE1"/><rect x="38" y="9" width="1" height="1" fill="#E7B447"/><rect x="39" y="9" width="1" height="1" fill="#F4ECE1"/><rect x="13" y="10" width="4" height="1" fill="#C04A56"/><rect x="19" y="10" width="4" height="1" fill="#C04A56"/><rect x="25" y="10" width="3" height="1" fill="#C04A56"/><rect x="28" y="10" width="1" height="1" fill="#9A3743"/><rect x="32" y="10" width="1" height="1" fill="#F4ECE1"/><rect x="33" y="10" width="4" height="1" fill="#B9AEA1"/><rect x="37" y="10" width="1" height="1" fill="#1F1918"/><rect x="38" y="10" width="1" height="1" fill="#B9AEA1"/><rect x="39" y="10" width="1" height="1" fill="#F4ECE1"/><rect x="13" y="11" width="15" height="1" fill="#C04A56"/><rect x="28" y="11" width="1" height="1" fill="#9A3743"/><rect x="32" y="11" width="8" height="1" fill="#F4ECE1"/><rect x="13" y="12" width="15" height="1" fill="#C04A56"/><rect x="28" y="12" width="1" height="1" fill="#9A3743"/><rect x="32" y="12" width="1" height="1" fill="#F4ECE1"/><rect x="33" y="12" width="5" height="1" fill="#B9AEA1"/><rect x="38" y="12" width="2" height="1" fill="#F4ECE1"/><rect x="7" y="13" width="2" height="1" fill="#CFC8BF"/><rect x="9" y="13" width="1" height="1" fill="#A8A097"/><rect x="13" y="13" width="15" height="1" fill="#C04A56"/><rect x="28" y="13" width="1" height="1" fill="#9A3743"/><rect x="32" y="13" width="8" height="1" fill="#F4ECE1"/><rect x="6" y="14" width="1" height="1" fill="#CFC8BF"/><rect x="7" y="14" width="1" height="1" fill="#1F1918"/><rect x="8" y="14" width="1" height="1" fill="#E7B447"/><rect x="9" y="14" width="1" height="1" fill="#1F1918"/><rect x="10" y="14" width="1" height="1" fill="#CFC8BF"/><rect x="11" y="14" width="1" height="1" fill="#A8A097"/><rect x="13" y="14" width="16" height="1" fill="#C04A56"/><rect x="32" y="14" width="1" height="1" fill="#F4ECE1"/><rect x="33" y="14" width="6" height="1" fill="#B9AEA1"/><rect x="39" y="14" width="1" height="1" fill="#F4ECE1"/><rect x="7" y="15" width="1" height="1" fill="#A8A097"/><rect x="8" y="15" width="2" height="1" fill="#1F1918"/><rect x="10" y="15" width="1" height="1" fill="#E7B447"/><rect x="11" y="15" width="1" height="1" fill="#A8A097"/><rect x="15" y="15" width="2" height="1" fill="#C04A56"/><rect x="25" y="15" width="2" height="1" fill="#C04A56"/><rect x="29" y="15" width="1" height="1" fill="#6F8E5D"/><rect x="30" y="15" width="1" height="1" fill="#94B07C"/><rect x="32" y="15" width="8" height="1" fill="#F4ECE1"/><rect x="6" y="16" width="2" height="1" fill="#CFC8BF"/><rect x="8" y="16" width="2" height="1" fill="#857D75"/><rect x="10" y="16" width="1" height="1" fill="#CFC8BF"/><rect x="15" y="16" width="2" height="1" fill="#C04A56"/><rect x="25" y="16" width="2" height="1" fill="#C04A56"/><rect x="30" y="16" width="2" height="1" fill="#94B07C"/><rect x="32" y="16" width="8" height="1" fill="#DDD3C6"/></g></svg>